<?xml version="1.0" encoding="utf-8"?>
<!-- Generator: Adobe Illustrator 16.0.4, SVG Export Plug-In . SVG Version: 6.00 Build 0)  -->
<!DOCTYPE svg PUBLIC "-//W3C//DTD SVG 1.1//EN" "http://www.w3.org/Graphics/SVG/1.1/DTD/svg11.dtd" [
	<!ENTITY ns_extend "http://ns.adobe.com/Extensibility/1.0/">
	<!ENTITY ns_ai "http://ns.adobe.com/AdobeIllustrator/10.0/">
	<!ENTITY ns_graphs "http://ns.adobe.com/Graphs/1.0/">
	<!ENTITY ns_vars "http://ns.adobe.com/Variables/1.0/">
	<!ENTITY ns_imrep "http://ns.adobe.com/ImageReplacement/1.0/">
	<!ENTITY ns_sfw "http://ns.adobe.com/SaveForWeb/1.0/">
	<!ENTITY ns_custom "http://ns.adobe.com/GenericCustomNamespace/1.0/">
	<!ENTITY ns_adobe_xpath "http://ns.adobe.com/XPath/1.0/">
]>
<svg version="1.1" id="Layer_1" xmlns:x="&ns_extend;" xmlns:i="&ns_ai;" xmlns:graph="&ns_graphs;"
	 xmlns="http://www.w3.org/2000/svg" xmlns:xlink="http://www.w3.org/1999/xlink" x="0px" y="0px" width="320.5px" height="95.75px"
	 viewBox="0 0 320.5 95.75" enable-background="new 0 0 320.5 95.75" xml:space="preserve">
<metadata><?xpacket begin="﻿" id="W5M0MpCehiHzreSzNTczkc9d"?>
<x:xmpmeta xmlns:x="adobe:ns:meta/" x:xmptk="Adobe XMP Core 5.3-c011 66.145661, 2012/02/06-14:56:27        ">
   <rdf:RDF xmlns:rdf="http://www.w3.org/1999/02/22-rdf-syntax-ns#">
      <rdf:Description rdf:about=""
            xmlns:dc="http://purl.org/dc/elements/1.1/">
         <dc:format>image/svg+xml</dc:format>
         <dc:title>
            <rdf:Alt>
               <rdf:li xml:lang="x-default">Web</rdf:li>
            </rdf:Alt>
         </dc:title>
      </rdf:Description>
      <rdf:Description rdf:about=""
            xmlns:xmp="http://ns.adobe.com/xap/1.0/"
            xmlns:xmpGImg="http://ns.adobe.com/xap/1.0/g/img/">
         <xmp:CreatorTool>Adobe Illustrator CS6 (Macintosh)</xmp:CreatorTool>
         <xmp:CreateDate>2014-02-12T11:36:19-07:00</xmp:CreateDate>
         <xmp:ModifyDate>2014-02-12T11:36:19-07:00</xmp:ModifyDate>
         <xmp:MetadataDate>2014-02-12T11:36:19-07:00</xmp:MetadataDate>
         <xmp:Thumbnails>
            <rdf:Alt>
               <rdf:li rdf:parseType="Resource">
                  <xmpGImg:width>256</xmpGImg:width>
                  <xmpGImg:height>76</xmpGImg:height>
                  <xmpGImg:format>JPEG</xmpGImg:format>
                  <xmpGImg:image>/9j/4AAQSkZJRgABAgEASABIAAD/7QAsUGhvdG9zaG9wIDMuMAA4QklNA+0AAAAAABAASAAAAAEA&#xA;AQBIAAAAAQAB/+4ADkFkb2JlAGTAAAAAAf/bAIQABgQEBAUEBgUFBgkGBQYJCwgGBggLDAoKCwoK&#xA;DBAMDAwMDAwQDA4PEA8ODBMTFBQTExwbGxscHx8fHx8fHx8fHwEHBwcNDA0YEBAYGhURFRofHx8f&#xA;Hx8fHx8fHx8fHx8fHx8fHx8fHx8fHx8fHx8fHx8fHx8fHx8fHx8fHx8fHx8f/8AAEQgATAEAAwER&#xA;AAIRAQMRAf/EAaIAAAAHAQEBAQEAAAAAAAAAAAQFAwIGAQAHCAkKCwEAAgIDAQEBAQEAAAAAAAAA&#xA;AQACAwQFBgcICQoLEAACAQMDAgQCBgcDBAIGAnMBAgMRBAAFIRIxQVEGE2EicYEUMpGhBxWxQiPB&#xA;UtHhMxZi8CRygvElQzRTkqKyY3PCNUQnk6OzNhdUZHTD0uIIJoMJChgZhJRFRqS0VtNVKBry4/PE&#xA;1OT0ZXWFlaW1xdXl9WZ2hpamtsbW5vY3R1dnd4eXp7fH1+f3OEhYaHiImKi4yNjo+Ck5SVlpeYmZ&#xA;qbnJ2en5KjpKWmp6ipqqusra6voRAAICAQIDBQUEBQYECAMDbQEAAhEDBCESMUEFURNhIgZxgZEy&#xA;obHwFMHR4SNCFVJicvEzJDRDghaSUyWiY7LCB3PSNeJEgxdUkwgJChgZJjZFGidkdFU38qOzwygp&#xA;0+PzhJSktMTU5PRldYWVpbXF1eX1RlZmdoaWprbG1ub2R1dnd4eXp7fH1+f3OEhYaHiImKi4yNjo&#xA;+DlJWWl5iZmpucnZ6fkqOkpaanqKmqq6ytrq+v/aAAwDAQACEQMRAD8A9U4q7FXYq7FXYq7FXYq7&#xA;FXYq7FXYq7FXYq7FXYq7FXYq7FXYq7FUPe6hZWMJmu5lhj7Fj19gOpPyynPqMeKPFMiIbMWGeQ1E&#xA;WUgPmvUNQcxaFp7TgbG6n+CMfRUfrr7Zp/5WyZjWnxmX9KWw/Hx+Dsf5PhjF5pV5DmrJoWv3fxan&#xA;q7xg9YLMemB7c6An6Rlg0Gpyb5cpHlDb7WB1WGH93jB85b/YrJ5P0QbyrLOx6vJNJX/hWXLR2Ng6&#xA;iUvfKX62s9o5elD4BC6l5USC2kuNIuZ7S5iBdEWVyjUFeJqSd/nmPqeyRCJlhlKEhvzNFuw9ocUg&#xA;MojKJ8lPyX5nudTMlneUa5iX1ElApySoB5AbVBIyHYnak89wn9QF33hl2noY4qlH6SynOgdS7FXY&#xA;q7FXYq7FXYq7FXYq7FXYq7FXYq7FXYq7FXYq7FXYq7FXYq7FXYq7FXYqxvX/ADfHaTfUNNT63qLH&#xA;hxUFlRvA0+03sM0faHbAxy8PEOPL936z5Oz0nZxmOOZ4YKGm+UJ7qYX/AJhlNzctuLevwL7Gm30D&#xA;b55Vpux5ZJeJqTxS7ug/HcNmzN2iIDgwjhj3spjijijWOJAkaiiooAAHsBm/jERFAUHUykSbPNdk&#xA;kOxVK/M2ppp2jXExP7x1McI7l3FB93XNf2nqhhwSl1Ow95/FuXosBy5QOnMsY/LfT5fXutQYERhP&#xA;QQ+JJDN93EZofZrTnilk6Vw/pdr21mFRh15s7zrnn3Yq7FXYq7FXYq7FXYq7FXYq7FXYq7FXYq7F&#xA;XYq7FXYq7FXYq7FXYq7FXYqxPzd5knjlGj6XVr2aiyunVeXRF/yj+Gc72v2lIHwMP1nn5eQ8/udx&#xA;2fogR4uT6QmHlnyxb6TCJZAJL+QfvZTvxr1Vfb375mdmdlx08bO+Q8z+gONrtdLMaG0AnmbZwHYq&#xA;7FWnZUUuxCqoJZjsAB1OAkAWUgXs831W7uvNWvx2lpX6rGSsR7BAfjlb5/0GcRq80+0NQIQ+gcvd&#xA;1l+PIPTYMcdJhMpfUfxT0HT7G3sLOK0t14xRCg8Se5PuTvnZafBHDAQjyDzmbLLJIylzKIy5rdir&#xA;sVdirsVdirsVdirsVdirsVdirsVdirsVdirsVdirsVdirsVdirsVQesX40/TLm8NCYUJUHoWOyj6&#xA;WIzG1mo8HFKfcPt6fa3abD4mQR72LeQdLaaSfWrr45nZlhZuvI7yP9NaffnP+z+l4jLPPck7fpP4&#xA;83b9rZ+EDFHl1/QGa51LonYqk3l3WpdUk1CoBgt5ylvKopyTelc1nZ2tOcz/AJsZUD5OdrNMMQj3&#xA;mO6c5s3BYX5619yRo1kS0shAuSm53+zGKdz3zl+3e0D/AHGPmfq/U7zsrSD+9lyHL9ac+VPLyaRY&#xA;1kAN7OA07daeCD2H682fZPZw02Pf65c/1OFr9Yc09vpHL9aZ3+oWlhavdXTiOJO/cnsAO5OZ+o1E&#xA;MMDOZoBxMOGWSXDEboXQ9etNZhkltkkQRNxYSADruKEEjMfQ9oQ1MSYgiu9u1WklhIEiN+5MsznF&#xA;dirsVdirsVdirsVdirsVdirsVdirsVdirsVdirsVdirsVdirsVdiqQ+eEkfy3c8BXiY2b5Bxmo7d&#xA;iTpZV5fe7DssgZxfn9yp5OaFvLln6XRQwceDczy/HJ9jGJ0sK/Btj2kD48rTrNo4LG/MesTzSHRN&#xA;J/e38/wzuvSJD9qrdj+r50zR9payUj+Xw75Jc/6IdnotMIjxcm0By8yvVLjy9p1vY6bYSX8rVeWR&#xA;fhXltVmND17DwyYjLR4o48UDkPU8t0Ex1MzPJIQHRLdW84a/YIBc2EVs8wPogyB2FNuRUHx8cwNX&#xA;2zqcI9UIxJ5b2fe5Wn7Ow5D6ZGVc9kt8vaR5hS4XWBYrdPKC8TTyBTVj/eUJrU9q/PMHs7R6kSGf&#xA;g4ydxxHv6uTrNRhMfC4uGu4fYyuPUfMvqL6+mRRQg1llNwtFXudh2GdFHU6q/VjiI9TxuolhwVtM&#xA;k/1WH6te3nmnXUtLSv1ZCVhr0Cj7Urf5+2c1q889fqBCH0jl+mRd1p8UdJhMpfV1/U9A0zTrbTrK&#xA;K0txSOMde7Hux9znY6XTRw4xCPIPOZ80skzKXMpZ5o1rVdLS3extRcJIxErMrNx6cR8JFOVcwe1d&#xA;bmwCJxx4gefP9Dl6DTY8pInKqTaxnluLKCeaIwSyIrPEeqkitM2ODIZwEpDhJHLucPLARkQDYBQd&#xA;55l0SzvBaT3IWckAqAzcSegYqCBmLm7TwY58Eper8c2/Hoss48QGyZ5nuIxfUfNlzNqKadoMS3U4&#xA;YetMd4wAdwCO3i33ZoNT2vKWUYtOOOXU9Px5u2w9nxjAzzHhHQdfx5MozfupdirsVdirsVdirsVd&#xA;irsVdirsVdirsVdirsVdirsVWyxRzRPFKoeOQFXU9CDsRkZwEgQdwUxkQbHNjMflPU9OmkfRNRME&#xA;UhqbeZea1+e/6q5oo9kZcMidPk4Qeh3/AB8nantDHlAGWFkdQiv0R5kuRwvNWEUR+0lrGEY/JzuM&#xA;yPyeqntPLQ/oivtafzGCO8cdn+kf0JlpmkafpsRjtIuHLeSQ7ux8WY75m6XR48AqAr7y42fUTym5&#xA;FrWNVttLsJLuc7LtGnd3PRRjrNXHT4zOX9pXTaeWWYiGEeX9MuvMmryanqHxWsbVcfssw3WNf8kD&#xA;r/bnKdn6WetzHLl+gH8R9346u+1eeOmxDHD6j+LeiAACg2A6DO1eaYj591toYF0q2JM9yKzceoQm&#xA;gX5sfw+ec32/ruGIwx+qXP3d3x/HN3PZOl4j4kuUeXv/AGJj5S8vLpNjzlA+uzgNMf5R2QfLv75m&#xA;9kdnfl8dn65c/wBTjdoazxp7fSOX61/mfzJFo1qOIEl5LX0Yj026s1Ow/HJ9qdpDTQ23meQ/SWOh&#xA;0Rzy7ojmu8rX+rX2mi51FFQyNWAqCpZPEr+rD2VnzZcXHlAF8vcjX4sePJwwPv8Aera3qM1tDHb2&#xA;gD6hdt6dqh6A/tO3+Sg3y3XamUIiMP7ye0f1+4MNLhEiZS+iO5/V8WF67pNtp+uaVbl+XMo91cP1&#xA;dml+N2J7Uzl9fpIYdRijfOjInr6tyXeaXUSyYpy99D4bBPLm61LzLI1rprG20hTxnvSCGl8VQbbf&#xA;5nwza5cuXXHgxenD1l/O9349/c4EMcNKOKfqydI93vT3StHsNLtxBaR8Qftud3c+LHNvpNHjwR4Y&#xA;D9Z97r9RqZ5ZXIo3MpodirsVdirsVdirsVdirsVdirsVdirsVdirsVdirsVdirsVdirUkiRo0jsF&#xA;RAWZjsABuScEpACzyCQCTQea6leXfmrXo7a2qtqpKw16Kn7Uje5/oM4bU5p9oagQj9HT3dZH8eT1&#xA;GHHHSYTKX1dff3PQ9PsLews4rS3XjFEKDxJ7k+5Odpp9PHDAQjyDzWbLLJIylzKpc3Edtby3EppH&#xA;CjO59lFTk8uQQiZHkBbGEDKQiOZYV5T0+XWNXn1+9FUWQ+gh3Bft9Ea0p/ZnLdkac6nNLU5OV7e/&#xA;/jrve0Mww4xhh3b+79rNLu6t7S2kubhwkMQ5Ox8M6jNljjiZSNRDo8eMzkIx5lgOlWU3mnXptQuw&#xA;RYxMPgPSg+xEP1t/bnIaTBLX6g5J/wB2PwI/r/a9DqMo0mEQj9Z/BP6md3t7aafZvcTsI4Ih0H3B&#xA;VHie2dZnzwwwMpbRDoMWKWSXCNyUu0a3ndpdZ1JfSuZlpFEx/uLcbhTXoT9psw9FjkSc+XaUuQ/m&#xA;x7v0lydTMCsWPeI/2UvxyYpqt1ba75rsVKN9QbjEjNVfVVXbkw6GhO2c9q8sNXrIbfu+X9YWf7Hb&#xA;4MctPp5b+vn7tnoUUUUMaxRKEjQURFFAAOwGdlCAiKAoB5uUiTZ5oPUdT+rSQ20Mfr3twaRQg0oo&#xA;PxO534quY2p1XARCI4py5D9J7gG/Dg4gZE1Edf0DzR2ZbjuxV2KuxV2KuxV2KuxV2KuxV2KuxV2K&#xA;uxV2KuxV2KuxV2KuxVhv5g628USaXCaNMPUuGH8laKv0kb5zHtFrjEDDH+Lc+7ud32PpQSch6clX&#xA;yBpsttayzzWrxSTdJpKCqjoqr9qneuWez+mOOBlKJBl1Pd5Dmw7XzCUgBKwOjLc6N06XeYrW4u9E&#xA;u7e3HKZ0+BelaEEj6QMwu0sUsmCcY/UQ5OjyRhljKXK0l0HXrHT9Gt7L6vcNfRAh7RIX5lyxJ6gD&#xA;v45q9Br8eHBHHwy8QfwiJu3O1eknkymdx4D1sNa3p2r6hpF1eX49No0LWunxnkEp9p5CPtPxrTww&#xA;a7T5s2GU8m1D0wHTzPea+SdLmx48kYw3s7y/V3BvQNc0aw0G1gtybi8ZatawqWlaVvtVp037nth7&#xA;P12DDp4xj6p/zRubRq9LlyZpGW0e88qTKz068vbhL/VwA0Z5Wtgp5JEf52P7b+/bM7Dpp5ZDJn6f&#xA;TDpHzPfL7nFyZowiYYuvOXf+oKF+0mt3z6XCxXTrYj9IzLtzbqIVP/Esp1BOqyHDH+6j9Z7z/NH6&#xA;WzCBgh4h+uX0ju/pfqSrzrC2n32lalbxAQWpCBFFFHBuSr7VFc1/bcDhyYssR6Y7fLcBzOzJeJCe&#xA;OR3l+lNF82pfqItGt5Lq6YCpdeEUde8je3t1zPHa4yjhwRMp+ewHvLiHs8498pEY/afcmOlaV9TD&#xA;z3En1jUJ6G4uT3p0VR+yo7DM7SaTw7lI8WSXOX6B3BxtRqOPYCoDkPx1TDMxxnYq7FXYq7FXYq7F&#xA;XYq7FXYq7FXYq7FXYq7FXYq7FXYq7FXYqpSWlpLKsskMbyr9mRlBYU32JFcrlhhI2QCfczGSQFAm&#xA;lXLGDsVdirsVdiq1IokJKIqk9SABX7siIAcgkyJ5oPWZNQWyKWCFrqZhEj7UjDbGQ+yjMbWyyDHW&#xA;MeuW3uvr8G/TCBncz6Rv7/JV03T4NPs47WEfCg+Jj1Zj9pm9ycnptPHDAQj0+3zYZ8xySMiryRRy&#xA;oUkQOjfaVgCD8wculESFEWGuMiDYaihhhQJEixoOioAo+4YwhGIqIoJlIk2Ta/JMXYq7FXYq7FXY&#xA;q7FXYq7FXYq7FXYq7FXYq7FXYq7FXYq7FXYq7FXYq7FXYq7FXYq7FXYq7FXYq7FXYq7FX//Z</xmpGImg:image>
               </rdf:li>
            </rdf:Alt>
         </xmp:Thumbnails>
      </rdf:Description>
      <rdf:Description rdf:about=""
            xmlns:xmpMM="http://ns.adobe.com/xap/1.0/mm/"
            xmlns:stRef="http://ns.adobe.com/xap/1.0/sType/ResourceRef#"
            xmlns:stEvt="http://ns.adobe.com/xap/1.0/sType/ResourceEvent#">
         <xmpMM:RenditionClass>proof:pdf</xmpMM:RenditionClass>
         <xmpMM:OriginalDocumentID>uuid:65E6390686CF11DBA6E2D887CEACB407</xmpMM:OriginalDocumentID>
         <xmpMM:DocumentID>xmp.did:0780117407206811822AFE1A44A07668</xmpMM:DocumentID>
         <xmpMM:InstanceID>xmp.iid:0780117407206811822AFE1A44A07668</xmpMM:InstanceID>
         <xmpMM:DerivedFrom rdf:parseType="Resource">
            <stRef:instanceID>xmp.iid:0680117407206811822AFE1A44A07668</stRef:instanceID>
            <stRef:documentID>xmp.did:0680117407206811822AFE1A44A07668</stRef:documentID>
            <stRef:originalDocumentID>uuid:65E6390686CF11DBA6E2D887CEACB407</stRef:originalDocumentID>
            <stRef:renditionClass>proof:pdf</stRef:renditionClass>
         </xmpMM:DerivedFrom>
         <xmpMM:History>
            <rdf:Seq>
               <rdf:li rdf:parseType="Resource">
                  <stEvt:action>saved</stEvt:action>
                  <stEvt:instanceID>xmp.iid:0180117407206811822AFE1A44A07668</stEvt:instanceID>
                  <stEvt:when>2014-02-12T11:13:33-07:00</stEvt:when>
                  <stEvt:softwareAgent>Adobe Illustrator CS6 (Macintosh)</stEvt:softwareAgent>
                  <stEvt:changed>/</stEvt:changed>
               </rdf:li>
               <rdf:li rdf:parseType="Resource">
                  <stEvt:action>saved</stEvt:action>
                  <stEvt:instanceID>xmp.iid:0780117407206811822AFE1A44A07668</stEvt:instanceID>
                  <stEvt:when>2014-02-12T11:36:19-07:00</stEvt:when>
                  <stEvt:softwareAgent>Adobe Illustrator CS6 (Macintosh)</stEvt:softwareAgent>
                  <stEvt:changed>/</stEvt:changed>
               </rdf:li>
            </rdf:Seq>
         </xmpMM:History>
      </rdf:Description>
      <rdf:Description rdf:about=""
            xmlns:illustrator="http://ns.adobe.com/illustrator/1.0/">
         <illustrator:StartupProfile>Web</illustrator:StartupProfile>
      </rdf:Description>
      <rdf:Description rdf:about=""
            xmlns:xmpTPg="http://ns.adobe.com/xap/1.0/t/pg/"
            xmlns:stDim="http://ns.adobe.com/xap/1.0/sType/Dimensions#"
            xmlns:xmpG="http://ns.adobe.com/xap/1.0/g/">
         <xmpTPg:NPages>1</xmpTPg:NPages>
         <xmpTPg:HasVisibleTransparency>False</xmpTPg:HasVisibleTransparency>
         <xmpTPg:HasVisibleOverprint>False</xmpTPg:HasVisibleOverprint>
         <xmpTPg:MaxPageSize rdf:parseType="Resource">
            <stDim:w>320.500000</stDim:w>
            <stDim:h>95.750000</stDim:h>
            <stDim:unit>Pixels</stDim:unit>
         </xmpTPg:MaxPageSize>
         <xmpTPg:PlateNames>
            <rdf:Seq>
               <rdf:li>Cyan</rdf:li>
               <rdf:li>Magenta</rdf:li>
               <rdf:li>Yellow</rdf:li>
            </rdf:Seq>
         </xmpTPg:PlateNames>
         <xmpTPg:SwatchGroups>
            <rdf:Seq>
               <rdf:li rdf:parseType="Resource">
                  <xmpG:groupName>Default Swatch Group</xmpG:groupName>
                  <xmpG:groupType>0</xmpG:groupType>
                  <xmpG:Colorants>
                     <rdf:Seq>
                        <rdf:li rdf:parseType="Resource">
                           <xmpG:swatchName>White</xmpG:swatchName>
                           <xmpG:mode>RGB</xmpG:mode>
                           <xmpG:type>PROCESS</xmpG:type>
                           <xmpG:red>255</xmpG:red>
                           <xmpG:green>255</xmpG:green>
                           <xmpG:blue>255</xmpG:blue>
                        </rdf:li>
                        <rdf:li rdf:parseType="Resource">
                           <xmpG:swatchName>Black</xmpG:swatchName>
                           <xmpG:mode>RGB</xmpG:mode>
                           <xmpG:type>PROCESS</xmpG:type>
                           <xmpG:red>0</xmpG:red>
                           <xmpG:green>0</xmpG:green>
                           <xmpG:blue>0</xmpG:blue>
                        </rdf:li>
                        <rdf:li rdf:parseType="Resource">
                           <xmpG:swatchName>RGB Red</xmpG:swatchName>
                           <xmpG:mode>RGB</xmpG:mode>
                           <xmpG:type>PROCESS</xmpG:type>
                           <xmpG:red>255</xmpG:red>
                           <xmpG:green>0</xmpG:green>
                           <xmpG:blue>0</xmpG:blue>
                        </rdf:li>
                        <rdf:li rdf:parseType="Resource">
                           <xmpG:swatchName>RGB Yellow</xmpG:swatchName>
                           <xmpG:mode>RGB</xmpG:mode>
                           <xmpG:type>PROCESS</xmpG:type>
                           <xmpG:red>255</xmpG:red>
                           <xmpG:green>255</xmpG:green>
                           <xmpG:blue>0</xmpG:blue>
                        </rdf:li>
                        <rdf:li rdf:parseType="Resource">
                           <xmpG:swatchName>RGB Green</xmpG:swatchName>
                           <xmpG:mode>RGB</xmpG:mode>
                           <xmpG:type>PROCESS</xmpG:type>
                           <xmpG:red>0</xmpG:red>
                           <xmpG:green>255</xmpG:green>
                           <xmpG:blue>0</xmpG:blue>
                        </rdf:li>
                        <rdf:li rdf:parseType="Resource">
                           <xmpG:swatchName>RGB Cyan</xmpG:swatchName>
                           <xmpG:mode>RGB</xmpG:mode>
                           <xmpG:type>PROCESS</xmpG:type>
                           <xmpG:red>0</xmpG:red>
                           <xmpG:green>255</xmpG:green>
                           <xmpG:blue>255</xmpG:blue>
                        </rdf:li>
                        <rdf:li rdf:parseType="Resource">
                           <xmpG:swatchName>RGB Blue</xmpG:swatchName>
                           <xmpG:mode>RGB</xmpG:mode>
                           <xmpG:type>PROCESS</xmpG:type>
                           <xmpG:red>0</xmpG:red>
                           <xmpG:green>0</xmpG:green>
                           <xmpG:blue>255</xmpG:blue>
                        </rdf:li>
                        <rdf:li rdf:parseType="Resource">
                           <xmpG:swatchName>RGB Magenta</xmpG:swatchName>
                           <xmpG:mode>RGB</xmpG:mode>
                           <xmpG:type>PROCESS</xmpG:type>
                           <xmpG:red>255</xmpG:red>
                           <xmpG:green>0</xmpG:green>
                           <xmpG:blue>255</xmpG:blue>
                        </rdf:li>
                        <rdf:li rdf:parseType="Resource">
                           <xmpG:swatchName>R=193 G=39 B=45</xmpG:swatchName>
                           <xmpG:mode>RGB</xmpG:mode>
                           <xmpG:type>PROCESS</xmpG:type>
                           <xmpG:red>193</xmpG:red>
                           <xmpG:green>39</xmpG:green>
                           <xmpG:blue>45</xmpG:blue>
                        </rdf:li>
                        <rdf:li rdf:parseType="Resource">
                           <xmpG:swatchName>R=237 G=28 B=36</xmpG:swatchName>
                           <xmpG:mode>RGB</xmpG:mode>
                           <xmpG:type>PROCESS</xmpG:type>
                           <xmpG:red>237</xmpG:red>
                           <xmpG:green>28</xmpG:green>
                           <xmpG:blue>36</xmpG:blue>
                        </rdf:li>
                        <rdf:li rdf:parseType="Resource">
                           <xmpG:swatchName>R=241 G=90 B=36</xmpG:swatchName>
                           <xmpG:mode>RGB</xmpG:mode>
                           <xmpG:type>PROCESS</xmpG:type>
                           <xmpG:red>241</xmpG:red>
                           <xmpG:green>90</xmpG:green>
                           <xmpG:blue>36</xmpG:blue>
                        </rdf:li>
                        <rdf:li rdf:parseType="Resource">
                           <xmpG:swatchName>R=247 G=147 B=30</xmpG:swatchName>
                           <xmpG:mode>RGB</xmpG:mode>
                           <xmpG:type>PROCESS</xmpG:type>
                           <xmpG:red>247</xmpG:red>
                           <xmpG:green>147</xmpG:green>
                           <xmpG:blue>30</xmpG:blue>
                        </rdf:li>
                        <rdf:li rdf:parseType="Resource">
                           <xmpG:swatchName>R=251 G=176 B=59</xmpG:swatchName>
                           <xmpG:mode>RGB</xmpG:mode>
                           <xmpG:type>PROCESS</xmpG:type>
                           <xmpG:red>251</xmpG:red>
                           <xmpG:green>176</xmpG:green>
                           <xmpG:blue>59</xmpG:blue>
                        </rdf:li>
                        <rdf:li rdf:parseType="Resource">
                           <xmpG:swatchName>R=252 G=238 B=33</xmpG:swatchName>
                           <xmpG:mode>RGB</xmpG:mode>
                           <xmpG:type>PROCESS</xmpG:type>
                           <xmpG:red>252</xmpG:red>
                           <xmpG:green>238</xmpG:green>
                           <xmpG:blue>33</xmpG:blue>
                        </rdf:li>
                        <rdf:li rdf:parseType="Resource">
                           <xmpG:swatchName>R=217 G=224 B=33</xmpG:swatchName>
                           <xmpG:mode>RGB</xmpG:mode>
                           <xmpG:type>PROCESS</xmpG:type>
                           <xmpG:red>217</xmpG:red>
                           <xmpG:green>224</xmpG:green>
                           <xmpG:blue>33</xmpG:blue>
                        </rdf:li>
                        <rdf:li rdf:parseType="Resource">
                           <xmpG:swatchName>R=140 G=198 B=63</xmpG:swatchName>
                           <xmpG:mode>RGB</xmpG:mode>
                           <xmpG:type>PROCESS</xmpG:type>
                           <xmpG:red>140</xmpG:red>
                           <xmpG:green>198</xmpG:green>
                           <xmpG:blue>63</xmpG:blue>
                        </rdf:li>
                        <rdf:li rdf:parseType="Resource">
                           <xmpG:swatchName>R=57 G=181 B=74</xmpG:swatchName>
                           <xmpG:mode>RGB</xmpG:mode>
                           <xmpG:type>PROCESS</xmpG:type>
                           <xmpG:red>57</xmpG:red>
                           <xmpG:green>181</xmpG:green>
                           <xmpG:blue>74</xmpG:blue>
                        </rdf:li>
                        <rdf:li rdf:parseType="Resource">
                           <xmpG:swatchName>R=0 G=146 B=69</xmpG:swatchName>
                           <xmpG:mode>RGB</xmpG:mode>
                           <xmpG:type>PROCESS</xmpG:type>
                           <xmpG:red>0</xmpG:red>
                           <xmpG:green>146</xmpG:green>
                           <xmpG:blue>69</xmpG:blue>
                        </rdf:li>
                        <rdf:li rdf:parseType="Resource">
                           <xmpG:swatchName>R=0 G=104 B=55</xmpG:swatchName>
                           <xmpG:mode>RGB</xmpG:mode>
                           <xmpG:type>PROCESS</xmpG:type>
                           <xmpG:red>0</xmpG:red>
                           <xmpG:green>104</xmpG:green>
                           <xmpG:blue>55</xmpG:blue>
                        </rdf:li>
                        <rdf:li rdf:parseType="Resource">
                           <xmpG:swatchName>R=34 G=181 B=115</xmpG:swatchName>
                           <xmpG:mode>RGB</xmpG:mode>
                           <xmpG:type>PROCESS</xmpG:type>
                           <xmpG:red>34</xmpG:red>
                           <xmpG:green>181</xmpG:green>
                           <xmpG:blue>115</xmpG:blue>
                        </rdf:li>
                        <rdf:li rdf:parseType="Resource">
                           <xmpG:swatchName>R=0 G=169 B=157</xmpG:swatchName>
                           <xmpG:mode>RGB</xmpG:mode>
                           <xmpG:type>PROCESS</xmpG:type>
                           <xmpG:red>0</xmpG:red>
                           <xmpG:green>169</xmpG:green>
                           <xmpG:blue>157</xmpG:blue>
                        </rdf:li>
                        <rdf:li rdf:parseType="Resource">
                           <xmpG:swatchName>R=41 G=171 B=226</xmpG:swatchName>
                           <xmpG:mode>RGB</xmpG:mode>
                           <xmpG:type>PROCESS</xmpG:type>
                           <xmpG:red>41</xmpG:red>
                           <xmpG:green>171</xmpG:green>
                           <xmpG:blue>226</xmpG:blue>
                        </rdf:li>
                        <rdf:li rdf:parseType="Resource">
                           <xmpG:swatchName>R=0 G=113 B=188</xmpG:swatchName>
                           <xmpG:mode>RGB</xmpG:mode>
                           <xmpG:type>PROCESS</xmpG:type>
                           <xmpG:red>0</xmpG:red>
                           <xmpG:green>113</xmpG:green>
                           <xmpG:blue>188</xmpG:blue>
                        </rdf:li>
                        <rdf:li rdf:parseType="Resource">
                           <xmpG:swatchName>R=46 G=49 B=146</xmpG:swatchName>
                           <xmpG:mode>RGB</xmpG:mode>
                           <xmpG:type>PROCESS</xmpG:type>
                           <xmpG:red>46</xmpG:red>
                           <xmpG:green>49</xmpG:green>
                           <xmpG:blue>146</xmpG:blue>
                        </rdf:li>
                        <rdf:li rdf:parseType="Resource">
                           <xmpG:swatchName>R=27 G=20 B=100</xmpG:swatchName>
                           <xmpG:mode>RGB</xmpG:mode>
                           <xmpG:type>PROCESS</xmpG:type>
                           <xmpG:red>27</xmpG:red>
                           <xmpG:green>20</xmpG:green>
                           <xmpG:blue>100</xmpG:blue>
                        </rdf:li>
                        <rdf:li rdf:parseType="Resource">
                           <xmpG:swatchName>R=102 G=45 B=145</xmpG:swatchName>
                           <xmpG:mode>RGB</xmpG:mode>
                           <xmpG:type>PROCESS</xmpG:type>
                           <xmpG:red>102</xmpG:red>
                           <xmpG:green>45</xmpG:green>
                           <xmpG:blue>145</xmpG:blue>
                        </rdf:li>
                        <rdf:li rdf:parseType="Resource">
                           <xmpG:swatchName>R=147 G=39 B=143</xmpG:swatchName>
                           <xmpG:mode>RGB</xmpG:mode>
                           <xmpG:type>PROCESS</xmpG:type>
                           <xmpG:red>147</xmpG:red>
                           <xmpG:green>39</xmpG:green>
                           <xmpG:blue>143</xmpG:blue>
                        </rdf:li>
                        <rdf:li rdf:parseType="Resource">
                           <xmpG:swatchName>R=158 G=0 B=93</xmpG:swatchName>
                           <xmpG:mode>RGB</xmpG:mode>
                           <xmpG:type>PROCESS</xmpG:type>
                           <xmpG:red>158</xmpG:red>
                           <xmpG:green>0</xmpG:green>
                           <xmpG:blue>93</xmpG:blue>
                        </rdf:li>
                        <rdf:li rdf:parseType="Resource">
                           <xmpG:swatchName>R=212 G=20 B=90</xmpG:swatchName>
                           <xmpG:mode>RGB</xmpG:mode>
                           <xmpG:type>PROCESS</xmpG:type>
                           <xmpG:red>212</xmpG:red>
                           <xmpG:green>20</xmpG:green>
                           <xmpG:blue>90</xmpG:blue>
                        </rdf:li>
                        <rdf:li rdf:parseType="Resource">
                           <xmpG:swatchName>R=237 G=30 B=121</xmpG:swatchName>
                           <xmpG:mode>RGB</xmpG:mode>
                           <xmpG:type>PROCESS</xmpG:type>
                           <xmpG:red>237</xmpG:red>
                           <xmpG:green>30</xmpG:green>
                           <xmpG:blue>121</xmpG:blue>
                        </rdf:li>
                        <rdf:li rdf:parseType="Resource">
                           <xmpG:swatchName>R=199 G=178 B=153</xmpG:swatchName>
                           <xmpG:mode>RGB</xmpG:mode>
                           <xmpG:type>PROCESS</xmpG:type>
                           <xmpG:red>199</xmpG:red>
                           <xmpG:green>178</xmpG:green>
                           <xmpG:blue>153</xmpG:blue>
                        </rdf:li>
                        <rdf:li rdf:parseType="Resource">
                           <xmpG:swatchName>R=153 G=134 B=117</xmpG:swatchName>
                           <xmpG:mode>RGB</xmpG:mode>
                           <xmpG:type>PROCESS</xmpG:type>
                           <xmpG:red>153</xmpG:red>
                           <xmpG:green>134</xmpG:green>
                           <xmpG:blue>117</xmpG:blue>
                        </rdf:li>
                        <rdf:li rdf:parseType="Resource">
                           <xmpG:swatchName>R=115 G=99 B=87</xmpG:swatchName>
                           <xmpG:mode>RGB</xmpG:mode>
                           <xmpG:type>PROCESS</xmpG:type>
                           <xmpG:red>115</xmpG:red>
                           <xmpG:green>99</xmpG:green>
                           <xmpG:blue>87</xmpG:blue>
                        </rdf:li>
                        <rdf:li rdf:parseType="Resource">
                           <xmpG:swatchName>R=83 G=71 B=65</xmpG:swatchName>
                           <xmpG:mode>RGB</xmpG:mode>
                           <xmpG:type>PROCESS</xmpG:type>
                           <xmpG:red>83</xmpG:red>
                           <xmpG:green>71</xmpG:green>
                           <xmpG:blue>65</xmpG:blue>
                        </rdf:li>
                        <rdf:li rdf:parseType="Resource">
                           <xmpG:swatchName>R=198 G=156 B=109</xmpG:swatchName>
                           <xmpG:mode>RGB</xmpG:mode>
                           <xmpG:type>PROCESS</xmpG:type>
                           <xmpG:red>198</xmpG:red>
                           <xmpG:green>156</xmpG:green>
                           <xmpG:blue>109</xmpG:blue>
                        </rdf:li>
                        <rdf:li rdf:parseType="Resource">
                           <xmpG:swatchName>R=166 G=124 B=82</xmpG:swatchName>
                           <xmpG:mode>RGB</xmpG:mode>
                           <xmpG:type>PROCESS</xmpG:type>
                           <xmpG:red>166</xmpG:red>
                           <xmpG:green>124</xmpG:green>
                           <xmpG:blue>82</xmpG:blue>
                        </rdf:li>
                        <rdf:li rdf:parseType="Resource">
                           <xmpG:swatchName>R=140 G=98 B=57</xmpG:swatchName>
                           <xmpG:mode>RGB</xmpG:mode>
                           <xmpG:type>PROCESS</xmpG:type>
                           <xmpG:red>140</xmpG:red>
                           <xmpG:green>98</xmpG:green>
                           <xmpG:blue>57</xmpG:blue>
                        </rdf:li>
                        <rdf:li rdf:parseType="Resource">
                           <xmpG:swatchName>R=117 G=76 B=36</xmpG:swatchName>
                           <xmpG:mode>RGB</xmpG:mode>
                           <xmpG:type>PROCESS</xmpG:type>
                           <xmpG:red>117</xmpG:red>
                           <xmpG:green>76</xmpG:green>
                           <xmpG:blue>36</xmpG:blue>
                        </rdf:li>
                        <rdf:li rdf:parseType="Resource">
                           <xmpG:swatchName>R=96 G=56 B=19</xmpG:swatchName>
                           <xmpG:mode>RGB</xmpG:mode>
                           <xmpG:type>PROCESS</xmpG:type>
                           <xmpG:red>96</xmpG:red>
                           <xmpG:green>56</xmpG:green>
                           <xmpG:blue>19</xmpG:blue>
                        </rdf:li>
                        <rdf:li rdf:parseType="Resource">
                           <xmpG:swatchName>R=66 G=33 B=11</xmpG:swatchName>
                           <xmpG:mode>RGB</xmpG:mode>
                           <xmpG:type>PROCESS</xmpG:type>
                           <xmpG:red>66</xmpG:red>
                           <xmpG:green>33</xmpG:green>
                           <xmpG:blue>11</xmpG:blue>
                        </rdf:li>
                     </rdf:Seq>
                  </xmpG:Colorants>
               </rdf:li>
               <rdf:li rdf:parseType="Resource">
                  <xmpG:groupName>Grays</xmpG:groupName>
                  <xmpG:groupType>1</xmpG:groupType>
                  <xmpG:Colorants>
                     <rdf:Seq>
                        <rdf:li rdf:parseType="Resource">
                           <xmpG:swatchName>R=0 G=0 B=0</xmpG:swatchName>
                           <xmpG:mode>RGB</xmpG:mode>
                           <xmpG:type>PROCESS</xmpG:type>
                           <xmpG:red>0</xmpG:red>
                           <xmpG:green>0</xmpG:green>
                           <xmpG:blue>0</xmpG:blue>
                        </rdf:li>
                        <rdf:li rdf:parseType="Resource">
                           <xmpG:swatchName>R=26 G=26 B=26</xmpG:swatchName>
                           <xmpG:mode>RGB</xmpG:mode>
                           <xmpG:type>PROCESS</xmpG:type>
                           <xmpG:red>26</xmpG:red>
                           <xmpG:green>26</xmpG:green>
                           <xmpG:blue>26</xmpG:blue>
                        </rdf:li>
                        <rdf:li rdf:parseType="Resource">
                           <xmpG:swatchName>R=51 G=51 B=51</xmpG:swatchName>
                           <xmpG:mode>RGB</xmpG:mode>
                           <xmpG:type>PROCESS</xmpG:type>
                           <xmpG:red>51</xmpG:red>
                           <xmpG:green>51</xmpG:green>
                           <xmpG:blue>51</xmpG:blue>
                        </rdf:li>
                        <rdf:li rdf:parseType="Resource">
                           <xmpG:swatchName>R=77 G=77 B=77</xmpG:swatchName>
                           <xmpG:mode>RGB</xmpG:mode>
                           <xmpG:type>PROCESS</xmpG:type>
                           <xmpG:red>77</xmpG:red>
                           <xmpG:green>77</xmpG:green>
                           <xmpG:blue>77</xmpG:blue>
                        </rdf:li>
                        <rdf:li rdf:parseType="Resource">
                           <xmpG:swatchName>R=102 G=102 B=102</xmpG:swatchName>
                           <xmpG:mode>RGB</xmpG:mode>
                           <xmpG:type>PROCESS</xmpG:type>
                           <xmpG:red>102</xmpG:red>
                           <xmpG:green>102</xmpG:green>
                           <xmpG:blue>102</xmpG:blue>
                        </rdf:li>
                        <rdf:li rdf:parseType="Resource">
                           <xmpG:swatchName>R=128 G=128 B=128</xmpG:swatchName>
                           <xmpG:mode>RGB</xmpG:mode>
                           <xmpG:type>PROCESS</xmpG:type>
                           <xmpG:red>128</xmpG:red>
                           <xmpG:green>128</xmpG:green>
                           <xmpG:blue>128</xmpG:blue>
                        </rdf:li>
                        <rdf:li rdf:parseType="Resource">
                           <xmpG:swatchName>R=153 G=153 B=153</xmpG:swatchName>
                           <xmpG:mode>RGB</xmpG:mode>
                           <xmpG:type>PROCESS</xmpG:type>
                           <xmpG:red>153</xmpG:red>
                           <xmpG:green>153</xmpG:green>
                           <xmpG:blue>153</xmpG:blue>
                        </rdf:li>
                        <rdf:li rdf:parseType="Resource">
                           <xmpG:swatchName>R=179 G=179 B=179</xmpG:swatchName>
                           <xmpG:mode>RGB</xmpG:mode>
                           <xmpG:type>PROCESS</xmpG:type>
                           <xmpG:red>179</xmpG:red>
                           <xmpG:green>179</xmpG:green>
                           <xmpG:blue>179</xmpG:blue>
                        </rdf:li>
                        <rdf:li rdf:parseType="Resource">
                           <xmpG:swatchName>R=204 G=204 B=204</xmpG:swatchName>
                           <xmpG:mode>RGB</xmpG:mode>
                           <xmpG:type>PROCESS</xmpG:type>
                           <xmpG:red>204</xmpG:red>
                           <xmpG:green>204</xmpG:green>
                           <xmpG:blue>204</xmpG:blue>
                        </rdf:li>
                        <rdf:li rdf:parseType="Resource">
                           <xmpG:swatchName>R=230 G=230 B=230</xmpG:swatchName>
                           <xmpG:mode>RGB</xmpG:mode>
                           <xmpG:type>PROCESS</xmpG:type>
                           <xmpG:red>230</xmpG:red>
                           <xmpG:green>230</xmpG:green>
                           <xmpG:blue>230</xmpG:blue>
                        </rdf:li>
                        <rdf:li rdf:parseType="Resource">
                           <xmpG:swatchName>R=242 G=242 B=242</xmpG:swatchName>
                           <xmpG:mode>RGB</xmpG:mode>
                           <xmpG:type>PROCESS</xmpG:type>
                           <xmpG:red>242</xmpG:red>
                           <xmpG:green>242</xmpG:green>
                           <xmpG:blue>242</xmpG:blue>
                        </rdf:li>
                     </rdf:Seq>
                  </xmpG:Colorants>
               </rdf:li>
               <rdf:li rdf:parseType="Resource">
                  <xmpG:groupName>Web Color Group</xmpG:groupName>
                  <xmpG:groupType>1</xmpG:groupType>
                  <xmpG:Colorants>
                     <rdf:Seq>
                        <rdf:li rdf:parseType="Resource">
                           <xmpG:swatchName>R=63 G=169 B=245</xmpG:swatchName>
                           <xmpG:mode>RGB</xmpG:mode>
                           <xmpG:type>PROCESS</xmpG:type>
                           <xmpG:red>63</xmpG:red>
                           <xmpG:green>169</xmpG:green>
                           <xmpG:blue>245</xmpG:blue>
                        </rdf:li>
                        <rdf:li rdf:parseType="Resource">
                           <xmpG:swatchName>R=122 G=201 B=67</xmpG:swatchName>
                           <xmpG:mode>RGB</xmpG:mode>
                           <xmpG:type>PROCESS</xmpG:type>
                           <xmpG:red>122</xmpG:red>
                           <xmpG:green>201</xmpG:green>
                           <xmpG:blue>67</xmpG:blue>
                        </rdf:li>
                        <rdf:li rdf:parseType="Resource">
                           <xmpG:swatchName>R=255 G=147 B=30</xmpG:swatchName>
                           <xmpG:mode>RGB</xmpG:mode>
                           <xmpG:type>PROCESS</xmpG:type>
                           <xmpG:red>255</xmpG:red>
                           <xmpG:green>147</xmpG:green>
                           <xmpG:blue>30</xmpG:blue>
                        </rdf:li>
                        <rdf:li rdf:parseType="Resource">
                           <xmpG:swatchName>R=255 G=29 B=37</xmpG:swatchName>
                           <xmpG:mode>RGB</xmpG:mode>
                           <xmpG:type>PROCESS</xmpG:type>
                           <xmpG:red>255</xmpG:red>
                           <xmpG:green>29</xmpG:green>
                           <xmpG:blue>37</xmpG:blue>
                        </rdf:li>
                        <rdf:li rdf:parseType="Resource">
                           <xmpG:swatchName>R=255 G=123 B=172</xmpG:swatchName>
                           <xmpG:mode>RGB</xmpG:mode>
                           <xmpG:type>PROCESS</xmpG:type>
                           <xmpG:red>255</xmpG:red>
                           <xmpG:green>123</xmpG:green>
                           <xmpG:blue>172</xmpG:blue>
                        </rdf:li>
                        <rdf:li rdf:parseType="Resource">
                           <xmpG:swatchName>R=189 G=204 B=212</xmpG:swatchName>
                           <xmpG:mode>RGB</xmpG:mode>
                           <xmpG:type>PROCESS</xmpG:type>
                           <xmpG:red>189</xmpG:red>
                           <xmpG:green>204</xmpG:green>
                           <xmpG:blue>212</xmpG:blue>
                        </rdf:li>
                     </rdf:Seq>
                  </xmpG:Colorants>
               </rdf:li>
            </rdf:Seq>
         </xmpTPg:SwatchGroups>
      </rdf:Description>
      <rdf:Description rdf:about=""
            xmlns:pdf="http://ns.adobe.com/pdf/1.3/">
         <pdf:Producer>Adobe PDF library 10.01</pdf:Producer>
      </rdf:Description>
   </rdf:RDF>
</x:xmpmeta>
                                                                                                    
                                                                                                    
                                                                                                    
                                                                                                    
                                                                                                    
                                                                                                    
                                                                                                    
                                                                                                    
                                                                                                    
                                                                                                    
                                                                                                    
                                                                                                    
                                                                                                    
                                                                                                    
                                                                                                    
                                                                                                    
                                                                                                    
                                                                                                    
                                                                                                    
                                                                                                    
                           
<?xpacket end="w"?>
	</metadata>
<g>
	<path fill="#FFFFFF" d="M75.513,54.197l-5.576,26.002H66.18c-1.448-4.617-3.767-9.098-6.956-13.441
		c-3.19-4.344-6.8-7.924-10.829-10.741c-2.662,4.147-5.635,7.866-8.922,11.153c-3.286,3.285-6.779,6.104-10.477,8.451
		c-3.697,2.348-7.542,4.168-11.534,5.459c-3.991,1.291-7.904,1.936-11.739,1.936c-1.056,0-2.191-0.098-3.404-0.293l1.878-4.461
		c2.075,0.234,3.639,0.353,4.695,0.353c10.72,0,20.27-4.187,28.643-12.561c1.722-1.722,3.472-3.708,5.253-5.957
		c1.781-2.25,3.63-4.882,5.547-7.895C52.6,45.51,56.24,39.251,59.253,33.42l5.518-10.624c4.343-8.334,7.688-13.977,10.036-16.933
		c2.349-2.954,4.675-4.431,6.985-4.431c0.743,0,1.399,0.156,1.966,0.469c0.566,0.314,1.006,0.773,1.321,1.38
		c0.312,0.607,0.469,1.282,0.469,2.025c0,0.548-0.098,1.35-0.293,2.406c-0.197,1.408-0.314,2.171-0.352,2.289l-8.981,42.201h4.168
		l-0.412,1.995H75.513z M69.995,54.197H49.511l0.235,0.176c3.482,2.662,6.476,5.4,8.98,8.218c2.503,2.817,4.95,6.183,7.337,10.095
		L69.995,54.197z M51.096,52.202h19.311l8.334-39.913c0.272-1.291,0.411-1.957,0.411-1.995c0.234-0.782,0.352-1.487,0.352-2.113
		c0-0.978-0.431-1.468-1.291-1.468c-1.056,0-2.328,1.115-3.815,3.346c-1.488,2.23-4.071,6.808-7.748,13.735
		c-0.549,1.056-1.665,3.19-3.346,6.397c-1.408,2.544-2.172,3.953-2.289,4.226L55.38,44.689
		C53.033,48.954,51.603,51.459,51.096,52.202z"/>
	<path fill="#FFFFFF" d="M98.478,54.248h-0.28c-0.392-0.112-0.807-0.182-1.244-0.209c-0.438-0.029-0.964-0.043-1.579-0.043
		c-1.417,0-2.823,0.308-4.221,0.923c-1.397,0.614-2.721,1.528-3.969,2.739v22.164h-5.254v-31.22h5.254v4.639
		c1.919-1.694,3.592-2.893,5.017-3.591c1.425-0.699,2.809-1.048,4.151-1.048c0.54,0,0.945,0.014,1.216,0.041
		c0.27,0.028,0.573,0.07,0.909,0.126V54.248z"/>
	<path fill="#FFFFFF" d="M114.293,80.437c-2.87,0-5.105-0.815-6.708-2.445c-1.602-1.63-2.404-4.206-2.404-7.728V52.962h-3.549
		v-4.359h3.549V39.63h5.255v8.972h9.671v4.359h-9.671v14.842c0,1.585,0.028,2.805,0.083,3.661c0.057,0.858,0.27,1.659,0.644,2.403
		c0.316,0.653,0.829,1.142,1.537,1.468c0.708,0.327,1.667,0.488,2.878,0.488c0.857,0,1.687-0.125,2.487-0.377
		c0.802-0.251,1.379-0.461,1.733-0.629h0.308v4.725c-0.988,0.279-1.989,0.498-3.005,0.656
		C116.086,80.357,115.15,80.437,114.293,80.437z"/>
	<path fill="#FFFFFF" d="M133.578,80.576c-2.087,0-4.039-0.279-5.855-0.838c-1.817-0.56-3.322-1.156-4.514-1.789v-5.897h0.279
		c0.448,0.354,0.973,0.746,1.58,1.174c0.604,0.429,1.412,0.876,2.417,1.341c0.895,0.412,1.877,0.775,2.949,1.09
		c1.071,0.318,2.185,0.477,3.341,0.477c0.838,0,1.732-0.098,2.682-0.294c0.951-0.195,1.659-0.441,2.125-0.741
		c0.652-0.427,1.123-0.884,1.412-1.369c0.288-0.483,0.433-1.211,0.433-2.18c0-1.248-0.34-2.188-1.021-2.823
		c-0.68-0.633-1.886-1.165-3.619-1.593c-0.67-0.168-1.547-0.363-2.627-0.588c-1.081-0.223-2.078-0.465-2.991-0.726
		c-2.385-0.688-4.118-1.755-5.199-3.2c-1.08-1.443-1.621-3.19-1.621-5.24c0-2.814,1.062-5.105,3.186-6.877
		c2.125-1.77,4.947-2.655,8.469-2.655c1.732,0,3.474,0.215,5.226,0.643c1.751,0.43,3.224,0.969,4.417,1.622v5.618h-0.28
		c-1.342-1.062-2.837-1.901-4.486-2.516c-1.649-0.615-3.312-0.923-4.989-0.923c-1.733,0-3.196,0.363-4.388,1.09
		c-1.193,0.727-1.789,1.827-1.789,3.299c0,1.305,0.354,2.277,1.062,2.92c0.708,0.643,1.845,1.17,3.41,1.58
		c0.782,0.205,1.653,0.404,2.613,0.602c0.959,0.194,1.97,0.424,3.032,0.684c2.311,0.578,4.048,1.537,5.213,2.879
		s1.747,3.168,1.747,5.479c0,1.341-0.266,2.613-0.797,3.814c-0.531,1.202-1.309,2.232-2.333,3.089
		c-1.118,0.932-2.381,1.64-3.787,2.124C137.467,80.334,135.703,80.576,133.578,80.576z"/>
	<path fill="#FFFFFF" d="M175.223,48.603l-16.797,42.733h-5.618l5.59-13.023l-11.348-29.71h5.673l8.524,23.114l8.497-23.114H175.223
		z"/>
	<path fill="#FBB03B" d="M234.264,45.417c6.82,0.211,10.426,0.315,10.814,0.315c0.385,0,0.613,0,0.684,0
		c1.688-0.137,2.533,0.106,2.533,0.741c0,0.985-1.373,1.476-4.115,1.476l-8.967-0.211c-1.83,0.143-2.92,0.317-3.27,0.528
		c-2.955,3.656-6.93,8.95-11.922,15.877c-4.996,6.928-7.49,11.059-7.49,12.395c0,0.562,0.633,0.422,1.898-0.422
		c0.771,0,1.16,0.107,1.16,0.316c0,0.352-0.775,0.881-2.32,1.584l-2.955,1.582c-1.336,1.125-2.866,1.688-4.588,1.688
		c-1.724,0-2.515-0.422-2.373-1.266c0.069-1.688,2.565-5.961,7.488-12.816c4.924-6.859,10.021-13.383,15.299-19.572
		c-5.064,0.917-8.934,1.373-11.605,1.373c-0.281-0.069-0.422-0.299-0.422-0.687c0-0.385,0.422-0.93,1.268-1.635
		c0.842-0.702,1.74-1.055,2.688-1.055c0.951,0,2.48-0.033,4.59-0.105h5.381c2.389-3.234,7.701-10.69,15.93-22.364
		c3.375-4.854,5.062-8.862,5.062-12.027c0-4.922-3.656-7.384-10.969-7.384c-5.699,0-12.398,1.583-20.1,4.748
		c-7.701,3.165-14.785,7.49-21.255,12.976c-4.573,3.798-8.194,7.912-10.866,12.342c-2.672,4.432-4.008,8.372-4.008,11.816
		c0,5.557,3.305,8.335,9.915,8.335c0.562,0,1.16-0.036,1.793-0.106c4.289-0.353,8.35-2.795,12.185-7.333
		c3.832-4.535,5.748-8.35,5.748-11.445c0-0.281-0.035-0.598-0.105-0.949c1.83,0.352,2.744,1.441,2.744,3.269
		c0,3.026-1.971,6.578-5.908,10.657c-5.345,5.556-11.534,8.334-18.566,8.334c-3.867,0-6.893-1.021-9.072-3.061
		c-2.18-2.037-3.27-4.815-3.27-8.333c0-8.299,5.064-16.668,15.19-25.107c7.314-5.978,15.087-10.497,23.315-13.556
		c8.229-3.06,15.383-4.589,21.469-4.589c6.082,0,10.617,0.88,13.607,2.637c2.988,1.759,4.484,4.204,4.484,7.332
		c0,3.131-1.373,6.664-4.115,10.603C249.631,24.917,243.969,32.618,234.264,45.417z"/>
	<path fill="#FBB03B" d="M240.891,75.528c0,1.718,0.943,2.576,2.834,2.576c1.887,0,4.32-1.001,7.298-3.005
		c2.974-2.002,5.866-4.723,8.671-8.157c0.688-0.914,1.23-1.374,1.632-1.374s0.601,0.173,0.601,0.516
		c0,0.344-1.174,1.832-3.521,4.464c-5.724,6.298-10.505,9.445-14.339,9.445c-1.887,0-3.49-0.442-4.807-1.329
		c-1.318-0.889-1.975-2.262-1.975-4.121c0-1.861,0.483-4.022,1.459-6.485c1.66-3.891,4.32-8.784,7.984-14.683
		c6.697-10.874,11.448-16.312,14.254-16.312c0.571,0,1.158,0.215,1.76,0.644c0.602,0.43,0.93,0.902,0.988,1.417
		c-1.318,1.775-3.852,5.181-7.6,10.218c-3.75,5.037-6.34,8.656-7.771,10.86c-1.431,2.204-2.505,3.851-3.221,4.938
		c-0.715,1.087-1.242,1.931-1.587,2.532c-0.343,0.602-0.745,1.39-1.202,2.361C241.375,71.98,240.891,73.811,240.891,75.528z"/>
	<path fill="#FBB03B" d="M261.498,80.767c-2.92,0-4.381-1.89-4.381-5.667c0-3.092,1.689-7.369,5.066-12.836
		c3.378-5.467,6.098-8.229,8.157-8.287c0.571,0,1.215,0.229,1.933,0.688c0.715,0.459,1.073,0.917,1.073,1.374
		c-0.288,0.4-0.633,0.845-1.032,1.331c-0.4,0.487-0.829,1.016-1.286,1.588c-0.46,0.574-1.089,1.389-1.89,2.447
		c-0.802,1.061-1.575,2.075-2.318,3.049c-4.293,5.553-6.439,9.373-6.439,11.461c0,2.092,0.716,3.135,2.146,3.135
		c1.203,0,2.834-0.656,4.895-1.975c4.809-2.977,8.613-6.238,11.42-9.788c1.029-1.316,1.729-1.976,2.102-1.976
		c0.373,0,0.56,0.23,0.56,0.688c0,0.459-0.659,1.373-1.976,2.747c-1.316,1.376-2.361,2.463-3.133,3.263
		c-0.773,0.803-1.303,1.332-1.589,1.59c-0.286,0.256-0.815,0.744-1.589,1.459s-1.361,1.217-1.76,1.504
		c-0.4,0.285-0.974,0.715-1.717,1.287c-0.746,0.572-1.403,0.986-1.975,1.244c-0.572,0.258-1.232,0.559-1.976,0.901
		C264.59,80.51,263.156,80.767,261.498,80.767z M279.484,45.606c0.772,0.545,1.159,1.188,1.159,1.932
		c0,0.744-0.356,1.388-1.072,1.932c-0.718,0.544-1.503,0.815-2.362,0.815c-0.857,0-1.646-0.313-2.361-0.943
		c-0.715-0.631-1.072-1.345-1.072-2.147c0-1.602,1.086-2.404,3.262-2.404C277.896,44.791,278.713,45.063,279.484,45.606z"/>
	<path fill="#FBB03B" d="M308.892,76.043c-4.122,3.436-7.543,5.152-10.261,5.152c-2.719,0-4.507-1.975-5.366-5.924
		c-0.286-1.602-0.487-4.006-0.601-7.214c-6.984,7.442-12.221,14.168-15.712,20.179c-0.173,0.227-0.399,0.344-0.688,0.344
		c-0.687,0-1.03-0.316-1.03-0.945c0-0.172,0.057-0.316,0.172-0.43c5.323-8.413,11.074-15.798,17.258-22.152
		c0.229-7.841,0.372-12.248,0.428-13.223c-1.316,0.288-4.119,3.606-8.412,9.961c-2.12,3.207-3.98,5.666-5.582,7.385
		c-1.603,1.716-2.561,2.705-2.877,2.961c-0.312,0.258-0.629,0.388-0.941,0.388c-0.315,0-0.474-0.144-0.474-0.431
		c0-0.285,0.916-1.445,2.747-3.477c1.83-2.032,4.264-5.354,7.297-9.96c3.034-4.607,5.209-7.513,6.527-8.716
		c1.314-1.202,2.547-1.802,3.691-1.802s1.976,0.158,2.488,0.472c0.518,0.314,0.701,0.858,0.56,1.631
		c-0.143,0.773-0.259,1.447-0.343,2.018c-0.086,0.574-0.158,1.232-0.217,1.976c-0.342,2.69-0.545,4.894-0.6,6.61
		c2.805-2.689,9.129-8.213,18.975-16.57c0.114-0.114,0.314-0.172,0.602-0.172c0.286,0,0.658,0.245,1.115,0.729
		c0.459,0.487,0.688,0.975,0.688,1.46c0,0.487-0.229,0.96-0.688,1.417c-1.831,1.49-5.021,3.878-9.572,7.169
		c-4.551,3.293-8.314,6.312-11.291,9.06c-0.058,1.201-0.086,2.831-0.086,4.894c0,2.06,0.258,3.949,0.773,5.666
		c0.686,2.232,1.945,3.35,3.777,3.35c3.263,0,8.299-3.92,15.112-11.764c0.571-0.572,1-0.859,1.286-0.859
		c0.287,0,0.43,0.186,0.43,0.558c0,0.374-0.229,0.816-0.686,1.333C313.844,71.294,311.008,74.271,308.892,76.043z"/>
</g>
</svg>
