<?xml version="1.0" encoding="utf-8"?>
<!-- Generator: Adobe Illustrator 16.0.4, SVG Export Plug-In . SVG Version: 6.00 Build 0)  -->
<!DOCTYPE svg PUBLIC "-//W3C//DTD SVG 1.1//EN" "http://www.w3.org/Graphics/SVG/1.1/DTD/svg11.dtd" [
	<!ENTITY ns_extend "http://ns.adobe.com/Extensibility/1.0/">
	<!ENTITY ns_ai "http://ns.adobe.com/AdobeIllustrator/10.0/">
	<!ENTITY ns_graphs "http://ns.adobe.com/Graphs/1.0/">
	<!ENTITY ns_vars "http://ns.adobe.com/Variables/1.0/">
	<!ENTITY ns_imrep "http://ns.adobe.com/ImageReplacement/1.0/">
	<!ENTITY ns_sfw "http://ns.adobe.com/SaveForWeb/1.0/">
	<!ENTITY ns_custom "http://ns.adobe.com/GenericCustomNamespace/1.0/">
	<!ENTITY ns_adobe_xpath "http://ns.adobe.com/XPath/1.0/">
]>
<svg version="1.1"
	 id="svg2989" xmlns:x="&ns_extend;" xmlns:i="&ns_ai;" xmlns:graph="&ns_graphs;" sodipodi:docname="shopping_cart_font_awesome.svg" inkscape:version="0.48.3.1 r9886" xmlns:dc="http://purl.org/dc/elements/1.1/" xmlns:cc="http://creativecommons.org/ns#" xmlns:rdf="http://www.w3.org/1999/02/22-rdf-syntax-ns#" xmlns:svg="http://www.w3.org/2000/svg" xmlns:sodipodi="http://sodipodi.sourceforge.net/DTD/sodipodi-0.dtd" xmlns:inkscape="http://www.inkscape.org/namespaces/inkscape"
	 xmlns="http://www.w3.org/2000/svg" xmlns:xlink="http://www.w3.org/1999/xlink" x="0px" y="0px" width="127px" height="100px"
	 viewBox="61.5 0 127 100" enable-background="new 61.5 0 127 100" xml:space="preserve">
<metadata  id="metadata2999">
	<rdf:RDF>
		<cc:Work  rdf:about="">
			<dc:format>image/svg+xml</dc:format>
			<dc:type  rdf:resource="http://purl.org/dc/dcmitype/StillImage"></dc:type>
		</cc:Work>
	</rdf:RDF>
	<sfw  xmlns="&ns_sfw;">
		<slices></slices>
		<sliceSourceBounds  height="78.571" width="92.857" y="11.215" x="73.313" bottomLeftOrigin="true"></sliceSourceBounds>
	</sfw>
</metadata>
<sodipodi:namedview  inkscape:cy="896" inkscape:cx="896" inkscape:zoom="0.13169643" showgrid="false" guidetolerance="10" gridtolerance="10" pagecolor="#ffffff" borderopacity="1" bordercolor="#666666" objecttolerance="10" id="namedview2995" inkscape:current-layer="svg2989" inkscape:window-maximized="0" inkscape:window-y="25" inkscape:window-x="0" inkscape:pageshadow="2" inkscape:pageopacity="0" inkscape:window-height="480" inkscape:window-width="640">
	</sodipodi:namedview>
<g id="g2991" transform="matrix(1,0,0,-1,68.338983,1209.4915)">
	<path id="path2993" inkscape:connector-curvature="0" fill="#FFFFFF" d="M41.189,1127.349c0-1.973-0.698-3.655-2.093-5.051
		c-1.395-1.395-3.078-2.092-5.05-2.092c-1.972,0-3.655,0.697-5.05,2.092c-1.396,1.396-2.093,3.078-2.093,5.051
		c0,1.971,0.697,3.654,2.093,5.05c1.395,1.396,3.078,2.093,5.05,2.093c1.972,0,3.655-0.697,5.05-2.093
		S41.189,1129.32,41.189,1127.349z M91.188,1127.349c0-1.973-0.697-3.655-2.092-5.051c-1.396-1.395-3.078-2.092-5.051-2.092
		c-1.972,0-3.654,0.697-5.05,2.092c-1.396,1.396-2.093,3.078-2.093,5.051c0,1.971,0.697,3.654,2.093,5.05s3.078,2.093,5.05,2.093
		c1.973,0,3.655-0.697,5.051-2.093C90.491,1131.003,91.188,1129.32,91.188,1127.349z M98.332,1188.063v-28.571
		c0-0.893-0.298-1.684-0.894-2.371c-0.595-0.689-1.357-1.089-2.287-1.2l-58.259-6.808c0.037-0.262,0.121-0.661,0.251-1.2
		c0.13-0.54,0.242-1.032,0.335-1.479c0.093-0.445,0.14-0.855,0.14-1.227c0-0.596-0.447-1.786-1.339-3.572h51.34
		c0.967,0,1.804-0.354,2.511-1.061c0.706-0.707,1.06-1.543,1.06-2.511s-0.354-1.804-1.06-2.511
		c-0.707-0.707-1.544-1.061-2.511-1.061H30.474c-0.967,0-1.804,0.354-2.511,1.061c-0.707,0.707-1.06,1.543-1.06,2.511
		c0,0.521,0.205,1.256,0.614,2.204c0.409,0.949,0.958,2.056,1.646,3.32c0.688,1.266,1.07,1.972,1.144,2.121l-9.877,45.926H9.046
		c-0.967,0-1.804,0.354-2.511,1.061c-0.707,0.707-1.061,1.544-1.061,2.511s0.354,1.804,1.061,2.511
		c0.707,0.707,1.544,1.06,2.511,1.06h14.286c0.595,0,1.125-0.121,1.59-0.363c0.465-0.242,0.837-0.53,1.116-0.865
		c0.279-0.335,0.521-0.791,0.726-1.367s0.344-1.07,0.418-1.479c0.075-0.409,0.177-0.958,0.307-1.646
		c0.13-0.688,0.214-1.163,0.251-1.423h67.021c0.967,0,1.805-0.353,2.511-1.06C97.978,1189.867,98.332,1189.03,98.332,1188.063z"/>
</g>
</svg>
