<?xml version="1.0" encoding="utf-8"?>
<!-- Generator: Adobe Illustrator 16.0.4, SVG Export Plug-In . SVG Version: 6.00 Build 0)  -->
<!DOCTYPE svg PUBLIC "-//W3C//DTD SVG 1.1//EN" "http://www.w3.org/Graphics/SVG/1.1/DTD/svg11.dtd" [
	<!ENTITY ns_extend "http://ns.adobe.com/Extensibility/1.0/">
	<!ENTITY ns_ai "http://ns.adobe.com/AdobeIllustrator/10.0/">
	<!ENTITY ns_graphs "http://ns.adobe.com/Graphs/1.0/">
	<!ENTITY ns_vars "http://ns.adobe.com/Variables/1.0/">
	<!ENTITY ns_imrep "http://ns.adobe.com/ImageReplacement/1.0/">
	<!ENTITY ns_sfw "http://ns.adobe.com/SaveForWeb/1.0/">
	<!ENTITY ns_custom "http://ns.adobe.com/GenericCustomNamespace/1.0/">
	<!ENTITY ns_adobe_xpath "http://ns.adobe.com/XPath/1.0/">
]>
<svg version="1.1" id="Layer_1" xmlns:x="&ns_extend;" xmlns:i="&ns_ai;" xmlns:graph="&ns_graphs;"
	 xmlns="http://www.w3.org/2000/svg" xmlns:xlink="http://www.w3.org/1999/xlink" x="0px" y="0px" width="320.5px" height="95.75px"
	 viewBox="0 0 320.5 95.75" enable-background="new 0 0 320.5 95.75" xml:space="preserve">
<metadata><?xpacket begin="﻿" id="W5M0MpCehiHzreSzNTczkc9d"?>
<x:xmpmeta xmlns:x="adobe:ns:meta/" x:xmptk="Adobe XMP Core 5.3-c011 66.145661, 2012/02/06-14:56:27        ">
   <rdf:RDF xmlns:rdf="http://www.w3.org/1999/02/22-rdf-syntax-ns#">
      <rdf:Description rdf:about=""
            xmlns:dc="http://purl.org/dc/elements/1.1/">
         <dc:format>image/svg+xml</dc:format>
         <dc:title>
            <rdf:Alt>
               <rdf:li xml:lang="x-default">Web</rdf:li>
            </rdf:Alt>
         </dc:title>
      </rdf:Description>
      <rdf:Description rdf:about=""
            xmlns:xmp="http://ns.adobe.com/xap/1.0/"
            xmlns:xmpGImg="http://ns.adobe.com/xap/1.0/g/img/">
         <xmp:CreatorTool>Adobe Illustrator CS6 (Macintosh)</xmp:CreatorTool>
         <xmp:CreateDate>2014-02-12T12:46:03-07:00</xmp:CreateDate>
         <xmp:ModifyDate>2014-02-12T12:46:03-07:00</xmp:ModifyDate>
         <xmp:MetadataDate>2014-02-12T12:46:03-07:00</xmp:MetadataDate>
         <xmp:Thumbnails>
            <rdf:Alt>
               <rdf:li rdf:parseType="Resource">
                  <xmpGImg:width>256</xmpGImg:width>
                  <xmpGImg:height>76</xmpGImg:height>
                  <xmpGImg:format>JPEG</xmpGImg:format>
                  <xmpGImg:image>/9j/4AAQSkZJRgABAgEASABIAAD/7QAsUGhvdG9zaG9wIDMuMAA4QklNA+0AAAAAABAASAAAAAEA&#xA;AQBIAAAAAQAB/+4ADkFkb2JlAGTAAAAAAf/bAIQABgQEBAUEBgUFBgkGBQYJCwgGBggLDAoKCwoK&#xA;DBAMDAwMDAwQDA4PEA8ODBMTFBQTExwbGxscHx8fHx8fHx8fHwEHBwcNDA0YEBAYGhURFRofHx8f&#xA;Hx8fHx8fHx8fHx8fHx8fHx8fHx8fHx8fHx8fHx8fHx8fHx8fHx8fHx8fHx8f/8AAEQgATAEAAwER&#xA;AAIRAQMRAf/EAaIAAAAHAQEBAQEAAAAAAAAAAAQFAwIGAQAHCAkKCwEAAgIDAQEBAQEAAAAAAAAA&#xA;AQACAwQFBgcICQoLEAACAQMDAgQCBgcDBAIGAnMBAgMRBAAFIRIxQVEGE2EicYEUMpGhBxWxQiPB&#xA;UtHhMxZi8CRygvElQzRTkqKyY3PCNUQnk6OzNhdUZHTD0uIIJoMJChgZhJRFRqS0VtNVKBry4/PE&#xA;1OT0ZXWFlaW1xdXl9WZ2hpamtsbW5vY3R1dnd4eXp7fH1+f3OEhYaHiImKi4yNjo+Ck5SVlpeYmZ&#xA;qbnJ2en5KjpKWmp6ipqqusra6voRAAICAQIDBQUEBQYECAMDbQEAAhEDBCESMUEFURNhIgZxgZEy&#xA;obHwFMHR4SNCFVJicvEzJDRDghaSUyWiY7LCB3PSNeJEgxdUkwgJChgZJjZFGidkdFU38qOzwygp&#xA;0+PzhJSktMTU5PRldYWVpbXF1eX1RlZmdoaWprbG1ub2R1dnd4eXp7fH1+f3OEhYaHiImKi4yNjo&#xA;+DlJWWl5iZmpucnZ6fkqOkpaanqKmqq6ytrq+v/aAAwDAQACEQMRAD8A9U4q7FXYq7FXYq7FXMyq&#xA;pZiAoFSTsABir5m/OHWvOHnry9rfmDSrsWX5e6FItvAC7IdTl9VYZJVAHxoruAvLbw+KtFWU/wDO&#xA;JkuoyeSNU9eV3s49QMdojEkIRCjSBa9B8QNB3xV7hirsVdirsVdirsVdirsVdirsVdiqHvdQsrGE&#xA;zXcywx9ix6+wHUn5ZTn1GPFHimRENmLDPIaiLKQHzXqGoOYtC09pwNjdT/BGPoqP119s0/8AK2TM&#xA;a0+My/pS2H4+Pwdj/J8MYvNKvIc1ZNC1+7+LU9XeMHrBZj0wPbnQE/SMsGg1OTfLlI8obfawOqww&#xA;/u8YPnLf7FZPJ+iDeVZZ2PV5JpK/8Ky5aOxsHUSl75S/W1ntHL0ofAIXUvKiQW0lxpFzPaXMQLoi&#xA;yuUagrxNSTv88x9T2SIRMsMpQkN+Zot2HtDikBlEZRPkp+S/M9zqfqWd5RrmFfUSUCnJKgHkBtUE&#xA;jIdidqTz3Cf1AXfeGXaehjiqUfpLKc6B1LsVdirsVdirsVdirsVdirsVdirsVecfnBrWoXMWneQ9&#xA;Dl9PXPNbtBJKN/q+noK3Uxp0qnwjx3puMVYh/wA5H/o/yx+UuleVtMT0bWa5htootq+hbI0jMSKV&#xA;YyBCT3JrirL/APnHvRRpf5UaNyXjNfCW9l9/WkPpn/kUExV6PirsVdirsVdirsVdirsVdirsVY3r&#xA;/m+O0m+oaan1vUWPDioLKjeBp9pvYZo+0O2Bjl4eIceX7v1nydnpOzjMcczwwUNN8oz3Uwv/ADDK&#xA;bm5bcW1fgX2NNvoG3zyrTdjyyS8TUnil3dB+O4bNmftEQHBhHDHvZTHFHFGscSBI1FFRQAAPYDN/&#xA;GIiKAoOplIk2ea7JIdiqV+ZtTTTtGuJif3jqY4R3LuKD7uua/tPVDDglLqdh7z+LcvRYDlygdOZY&#xA;x+W+ny+vdagwIjCegh8SSGb7uIzQ+zWnPFLJ0rh/S7XtrMKjDrzZ3nXPPuxV2KuxV2KuxV2KuxV2&#xA;KuxV2Kqd1dW9pbTXVzIsNvbo0s0rmioiDkzE+AArirzX8prS58w6tq/5l6irCTWmNpoMMg3g0uBy&#xA;EoD0MzryYe1e+KvLf+csdTlvvN2gaBB+8kt7ZpRGOpkvJeAX50gH34q+k9E0yLStFsNLip6VhbQ2&#xA;sdOnGGMIPwXFUbirsVdirsVdirsVdirsVdirE/N3mSeOUaPphLXs1FldOq8uiL/lH8M53tjtKQPg&#xA;YvrPP49B5/c7js7RAjxcn0j8fJMPLPli30mESyASX8g/eynfjXqq+3v3zM7M7Ljp42d8h5n9AcbX&#xA;a6WY0NoBPM2zgOxV2KtOyopdiFVQSzHYADqcBIAspAvZ5vqt3deateS0tK/VYyViJrQID8crfP8A&#xA;oM4jV5p9oagQh9A5e7rL8eT0+DHHSYTKX1H8U9B0+xt7CzitLdeMUQoPEnuT7k752WnwRwwEI8g8&#xA;3myyySMpcyiMua3Yq7FXYq7FXYq7FXYq7FXYq7FXmv5r3Vxr9/pn5baZIyXGuH6zrk8ZHK30qBgZ&#xA;D7GZxwXx3B64q9Es7O1srSCztI1htbaNYoIUFFREAVVHsAMVfLOpg+b/APnKVIB+8gs9RjQrWqhN&#xA;LjDSD6Xgb6Tir6sxV2KpNrXnPynod3FZ6xq1rYXU6h4YbiVY3dSxUFQTvuKYqnOKuxV2KuxV2Kux&#xA;VB6xfjT9Mubw0JhQlQehY7KPpYjMbWajwcUp9w+3p9rdpsPiZBHvYt5B0tppJ9auvjmdmWFm68jv&#xA;I/01p9+c/wCz+l4jLPPck7fpP483b9rZ+EDFHl1/QGa51LonYqk3l3WpdUk1CoBgt5ylvKopyTel&#xA;c1nZ2tOcz/mxlQPk52s0wxCPeY7pzmzcFhfnrX3JGjWRLSyEC5Kbnf7MYp3PfOX7d7QP9xj5n6v1&#xA;O87K0g/vZchy/WnPlTy8mkWNZADezgNO3Wngg9h+vNn2T2cNNj3+uXP9Tha/WHNPb6Ry/Wmd/qFp&#xA;YWr3V04jiTv3J7ADuTmfqNRDDAzmaAcTDhlklwxG6F0PXrTWYZJbZJEETcWEgA67ihBIzH0PaENT&#xA;EmIIrvbtVpJYSBIjfuTLM5xXYq7FXYq7FXYq7FXYq7FUu8x+YNM8vaHe61qcnpWVjEZZW2qadEUG&#xA;lWdqKo7k4qwz8oNF1Ke2v/POupx13zU63AiP/HtYrta2616DhRj47V3GKs+vbuCzs57yduMFtG80&#xA;reCRqWY/cMVfMH/OMFpPrX5ka55luhyeG3lkdutLi9mrWv8AqrJir3vyz+aPkTzNfXdjomqC6urG&#xA;NprtGhnhCRowVmLzRxrsT2OKrdL/ADX/AC91XzFH5d0zWobzV5ufpQwLJIjemhkfjMqmE0VSft4q&#xA;+bf+cgfPHlfzN550i+0S9+t2tjbrDdSelNHwkS4dmWkqITQHsMVe923/ADkD+UV1cxW0Gvc5p3WO&#xA;JPql6Ks54qKmEDqcVZb5l82eXPLGn/pDXr+Kwta8VeQks7fyoihnc+yg4qwCP/nJn8pmn9Nr65RK&#xA;09ZrWXh86KC//C4qyiX82Py8j8unzH+mY5NGWVbeS5hSaYxyuCVWSOJHkjrT9pR+OKpz5a80aF5m&#xA;0iLV9DuheafMzokwR4/ijYqwKSKjihHcYqjdQv7PT7C4v72UQWdpE89zM1aJHGpZ2NPBRirBbj8w&#xA;PKfnTy1qZ8s3xv1sGgN23oXEIUSP8O8yR1+yelc1HbsSdLKvL73YdlkDOL8/uZP5OaFvLln6XRQw&#xA;ceDczy/HJ9jGJ0sK/Btj2kD48rTrNo4LG/MesTzSHRNJ/e38/wAM7r0iQ/aq3Y/q+dM0faWslI/l&#xA;8O+SXP8Aoh2ei0wiPFybQHLzK9UuPL2nW9jpthJfytV5ZF+FeW1WY0PXsPDJiMtHijjxQOQ9Ty3Q&#xA;THUzM8khAdEt1bzhr9ggFzYRWzzA+iDIHYU25FQfHxzA1fbOpwj1QjEnlvZ97lafs7DkPpkZVz2S&#xA;3y9pHmFLhdYFit08oLxNPIFNWP8AeUJrU9q/PMHs7R6kSGfg4ydxxHv6uTrNRhMfC4uGu4fYyuPU&#xA;fMvqL6+mRRQg1llNwtFXudh2GdFHU6q/VjiI9TxuolhwVtMk/wBVh+rXt55p11LS0r9WQlYa9Ao+&#xA;1K3+ftnNavPPX6gQh9I5fpkXdafFHSYTKX1df1PQNM06206yitLcUjjHXux7sfc52Ol00cOMQjyD&#xA;zmfNLJMylzKWeaNa1XS0t3sbUXCSMRKzKzcenEfCRTlXMHtXW5sAicceIHnz/Q5eg02PKSJyqk2s&#xA;Z5biygnmiMEsiKzxHqpIrTNjgyGcBKQ4SRy7nDywEZEA2AUHeeZdEs7wWk9yFnJAKgM3EnoGKggZ&#xA;i5u08GOfBKXq/HNvx6LLOPEBsmeZ7iMX1HzZczaimnaDEt1OGHrTHeMAHcAjt4t92aDU9ryllGLT&#xA;jjl1PT8ebtsPZ8YwM8x4R0HX8eTKM37qXYq7FXYq8E/NBvMv5pX99oXlONbny75YdX1JzJ6S398D&#xA;vawyUK1jTluduXX9k4qm/kXy55f826fJJaebfNlnqNm3o6no9xq0qXNpKpoUkTiDTb4WpQ/MEBVC&#xA;fm75Hg8s/l5rGrL5p8yXMiRrBHbXOqSyQyG4kWHjIhA5Lxc1HhiqRf8AOMv5epd6A/meTUtSsZDq&#xA;AEdrZ3LQW9xHaBWUXEaj96vN3UgnpXxxV5h+WfkbW/O3m/VdDsNSOmWUiSSatMKkvbrMtE4Arzq/&#xA;HYmnfFX0b5J/5x88leUddsNdsLm/m1Kw9Ti08kRjcyxPC3JFjXbjIaUPh1xV4l/zkL5N8teXvPej&#xA;WejWK2dte26TXUas7B3e4dWY82Y7gdsVfQFv+Rn5U29xFcQ+XoUmhdZI3Es+zKaqd5OxGKvCvzln&#xA;t9c/5yAg0TzJeNbeXrWSytQ5bgkcE0Ucsrcj8K8nkIZ+w6/ZxV7q/wCSH5S3GnrbL5dtfq5X4JY2&#xA;kEhBGx9ZX9Q/PliqU2P5EaLpXk3zV5ZsLqSey18CS1S5ALW80a1irIv2wsqq32QaePXFWAf84o+Z&#xA;Z7PUNc8l31Y5QTe28L7FZYiIblPn9jb/ACTirMf+cnvNv6G/L79EwvxvNelFuADQ/V4qSTn/AIgh&#xA;9mxVNvyG8lRaB+WVlDcxD61rCm+vlYbkTqPTQ99oQu3jXIzgJAg7gpjIg2ObIY/Kep6dNI+iaiYI&#xA;pDU28y81r89/1VzRR7Iy4ZE6fJwg9Dv+Pk7U9oY8oAywsjqEV+iPMlyOF5qwiiP2ktYwjH5OdxmR&#xA;+T1U9p5aH9EV9rT+YwR3jjs/0j+hMtM0jT9NiMdpFw5bySHd2PizHfM3S6PHgFQFfeXGz6ieU3It&#xA;axqttpdhJdznZdo07u56KMdZq46fGZy/tK6bTyyzEQwjy/pl15k1eTU9Q+K1jarj9lmG6xr/AJIH&#xA;X+3OU7P0s9bmOXL9AP4j7vx1d9q88dNiGOH1H8W9EAAFBsB0Gdq80xHz7rbQwLpVsSZ7kVm49QhN&#xA;AvzY/h885vt/XcMRhj9Uufu7vj+ObueydLxHxJco8vf+xMfKXl5dJsecoH12cBpj/KOyD5d/fM3s&#xA;js78vjs/XLn+pxu0NZ409vpHL9a/zP5ki0a1HECS8lr6MR6bdWanYfjk+1O0hpobbzPIfpLHQ6I5&#xA;5d0RzXeVr/Vr7TRc6iioZGrAVBUsniV/Vh7Kz5suLjygC+XuRr8WPHk4YH3+9W1vUZraGO3tAH1C&#xA;7b07VD0B/adv8lBvluu1MoREYf3k9o/r9wYaXCJEyl9Edz+r4sL13SbbT9c0q3L8uZR7q4fq7NL8&#xA;bsT2pnL6/SQw6jFG+dGRPX1bku80uolkxTl76Hw2CeXN1qXmWRrXTWNtpCnjPekENL4qg22/zPhm&#xA;1y5cuuPBi9OHrL+d7vx7+5wIY4aUcU/Vk6R7venulaPYaXbiC0j4g/bc7u58WObfSaPHgjwwH6z7&#xA;3X6jUzyyuRRuZTQ7FXYq8t85ectX816pN5E8hS1uD8HmHzGlTBYRHZo43WnOdtwADt86lFWd+VPK&#xA;2j+VtBtdE0iL0rO1WgJoXdzu0kjADk7Hcn+GKsM/M7ypqtjdp+YPk9OHmXS0rqNmmyalZLvJDKo+&#xA;06qPgPXag3C0Vedf85D/AJiaX5j/ACv8tzaTJW31u6a4eMkc0+qRlZIXHikky1+Xhir1v8mNFGj/&#xA;AJXeXbTjxeS0W6kHfldE3Br7j1KYq8S/5xa/8mN5j/5g5P8AqKTFX1Dir5e/5yl/8mN5c/5g4/8A&#xA;qKfFX1DirzL82fyM0Xz9NHqSXTaZrcMYiF0qCSOVFJKrLHVTtXZg337Yq8e1D8n/AM8vIdrNf6Dq&#xA;73FjaqZZE026lQhE+IlreQIrU68V5Yq9T/5x7/NbVvO+k39lrnGTVtJMRa7RQgnim5BWZV+EOrIa&#xA;0oDUbdcVeY/mbDJ+W3592PmmBSmm6hKt/JxGxWWsV6m3UmrP0/aGKonz46/mb+f+neXLdvX0XSik&#xA;E7IaoY4v3921exY/uq+IGKvqBVVVCqAFAoANgAMVdirsVakkSNGkdgqICzMdgANyTglIAWeQSASa&#xA;DzXUry781a9HbW1VtVJWGvRU/akb3P8AQZw2pzT7Q1AhH6Onu6yP48nqMOOOkwmUvq6+/ueh6fYW&#xA;9hZxWluvGKIUHiT3J9yc7TT6eOGAhHkHms2WWSRlLmVS5uI7a3luJTSOFGdz7KKnJ5cghEyPIC2M&#xA;IGUhEcywrynp8usavPr96Kosh9BDuC/b6I1pT+zOW7I051OaWpycr29//HXe9oZhhxjDDu3937Wa&#xA;Xd1b2ltJc3DhIYhydj4Z1GbLHHEykaiHR48ZnIRjzLAdKspvNOvTahdgixiYfAelB9iIfrb+3OQ0&#xA;mCWv1ByT/ux+BH9f7XodRlGkwiEfrP4J/Uzu9vbTT7N7idhHBEOg+4Ko8T2zrM+eGGBlLaIdBixS&#xA;yS4RuSl2jQXDtLrOpL6VxOtIomP9xbjcLv0J+02YeixyJOfLtKXIfzY936S5OpmBWLHvEf7KX45M&#xA;U1W6ttd812KlG+oNxiRmqvqqrtyYdDQnbOe1eWGr1kNv3fL+sLP9jt8GOWn08t/Xz92z0KKKKGNY&#xA;olCRoKIiigAHYDOyhARFAUA83KRJs80HqOp/VpIbaGP1724NIoQaUUH4nc78VXMbU6rgIhEcU5ch&#xA;+k9wDfhwcQMiaiOv6B5sYvfzo/K+yvLqyuvMEEV1ZSPDcxFZaq8bFWUUSjUYfs1zLcdINX/5yU/L&#xA;O0/dabPda3eMeMVtZW8gLOdgOUwiH/A1xVBrb/m3+ZA4aijeRvKMh/eWyEnVbmPurMQvpK3eqqfZ&#xA;hir0vyz5X0LyzpEWk6JaJaWUW/Bd2Zj1eRj8Tse5OKprirsVfHH5yfl3NpX5qW+hWHJNL1+4juNL&#xA;gWpSOS9kWKVUXoD6i9B+zxxV9iW8EVvBHBCoSKJVSNB0CqKAfdir5m/5xftbqH8xPMTSwvGps5AG&#xA;dSoP+kp4jFX05ir5/wD+cpfIeu6l+i/NGkW8l0NPie3v0hBaSNOfqRShV+IgMzciOm3boqgPL3/O&#xA;VGv6g+n6SfLcc2qTPFDPeRzOUJZgryC3WPkOtaepiqN89fmf+ankDz9q88mmS6l5PuJY3tBcI/oq&#xA;PSQP6Nygb0/iU/C1R3474qlmsf8AOVd/q2mTaZoflp49TvY2hjkacz8C6kEpHHEjOw7bjFWZf843&#xA;/llq/lLRL7Vdaja21LWfT42L7NDDDyK8x2dy5JXsKd64q7/nKTy3baj+Xa6uzKl1olwkkTNQFo7h&#xA;lhkjWviSjf7HFWP/APOJnlAw6dqnm25T95eN9RsXPX0oyHmYezScR/scVfQeKuxV2KsN/MHW3iiT&#xA;S4TRph6lww/krRV+kjfOY9otcYgYY/xbn3dzu+x9KCTkPTkq+QNNltrWWea1eKSbpNJQVUdFVftU&#xA;7175Z7P6aWOBlKJBl1Pd5Dmw7XzCUgBKwOjLc6N06XeYrW4u9Eu7e3HKZ0+BelaEEj6QMwu0sUsm&#xA;CcY/UQ5OjyRhljKXK0l0HXrHT9Gt7L6vcNfRAh7RIX5lyxJ6gDv45q9Br8eHBHHwy8QfwiJu3O1e&#xA;knkymdx4D1sNa3p2r6hpF1eX49No0LWunxnkEp9p5CPtPxrTwwa7T5s2GU8m1D0wHTzPea+SdLmx&#xA;48kYw3s7y/V3BvQNc0aw0G1gtybi8ZatawqWlaVvtVp037nth7P12DDp4xj6p/zRubRq9LlyZpGW&#xA;0e88qTKz068vbhL/AFcANGeVrYKeSRH+dj+2/v2zOw6aeWQyZ+n0w6R8z3y+5xcmaMImGLrzl3/q&#xA;ChftJrd8+lwsV062I/SMy7c26iFT/wASynUE6rIcMf7qP1nvP80fpbMIGCHiH65fSO7+l+pKvOsL&#xA;affaVqVvEBBakIEUUUcG5KvtUVzX9twOHJiyxHpjt8twHM7Ml4kJ45HeX6U0Xzal+oi0a3kurpgK&#xA;l14RR17yN7e3XM8drjKOHBEyn57Ae8uIezzj3ykRj9p9yY6VpX1MPPcSfWNQnobi5PenRVH7KjsM&#xA;ztJpPDuUjxZJc5foHcHG1Go49gKgOQ/HVg//AELt+UZunuZNGeVnJYq93dleRNSf73kfpOZjjMt8&#xA;v+R/J/l0D9CaPaWD0oZoolEpHg0pBkP0tiqd4q7FXYq7FXYq7FXYq7FXYq6g+/FXYqpxWttCxaGF&#xA;I2b7RRQpPzpiqpir5v8A+cpfNFzqWr6N5D0yss7OlzdQp1eeY+lbRfOhZqf5S4q938m+W7fyz5V0&#xA;vQYKFNPt0id12DyUrK/+zkLN9OKpzirsVdiqlJaWksqyyQxvKv2ZGUFhTfYkVyuWGEjZAJ9zMZJA&#xA;UCaVcsYOxV2KuxV2KrUiiQkoiqT1IAFfuyIgByCTInmg9Zk1BbIpYIWupmESPtSMNsZD7KMxtbLI&#xA;MdYx65be6+vwb9MIGdzPpG/v8lXTdPg0+zjtYR8KD4mPVmP2mb3Jyem08cMBCPT7fNhnzHJIyKvJ&#xA;FHKhSRA6N9pWAIPzBy6URIURYa4yINhqKGGFAkSLGg6KgCj7hjCEYioigmUiTZNr8kxdirsVdirs&#xA;VdirsVdirsVdirsVdirsVdirsVdirFLr/lVP+K1+tfoL/Fvqx8fV+p/pH1uK+lTl+/58ePHvSlMV&#xA;ZXirsVdirsVdirsVdirsVdirsVdirsVdirsVdirsVf/Z</xmpGImg:image>
               </rdf:li>
            </rdf:Alt>
         </xmp:Thumbnails>
      </rdf:Description>
      <rdf:Description rdf:about=""
            xmlns:xmpMM="http://ns.adobe.com/xap/1.0/mm/"
            xmlns:stRef="http://ns.adobe.com/xap/1.0/sType/ResourceRef#"
            xmlns:stEvt="http://ns.adobe.com/xap/1.0/sType/ResourceEvent#">
         <xmpMM:RenditionClass>proof:pdf</xmpMM:RenditionClass>
         <xmpMM:OriginalDocumentID>uuid:65E6390686CF11DBA6E2D887CEACB407</xmpMM:OriginalDocumentID>
         <xmpMM:DocumentID>xmp.did:B5A15C100E206811822AFE1A44A07668</xmpMM:DocumentID>
         <xmpMM:InstanceID>xmp.iid:B5A15C100E206811822AFE1A44A07668</xmpMM:InstanceID>
         <xmpMM:DerivedFrom rdf:parseType="Resource">
            <stRef:instanceID>xmp.iid:0780117407206811822AFE1A44A07668</stRef:instanceID>
            <stRef:documentID>xmp.did:0780117407206811822AFE1A44A07668</stRef:documentID>
            <stRef:originalDocumentID>uuid:65E6390686CF11DBA6E2D887CEACB407</stRef:originalDocumentID>
            <stRef:renditionClass>proof:pdf</stRef:renditionClass>
         </xmpMM:DerivedFrom>
         <xmpMM:History>
            <rdf:Seq>
               <rdf:li rdf:parseType="Resource">
                  <stEvt:action>saved</stEvt:action>
                  <stEvt:instanceID>xmp.iid:0180117407206811822AFE1A44A07668</stEvt:instanceID>
                  <stEvt:when>2014-02-12T11:13:33-07:00</stEvt:when>
                  <stEvt:softwareAgent>Adobe Illustrator CS6 (Macintosh)</stEvt:softwareAgent>
                  <stEvt:changed>/</stEvt:changed>
               </rdf:li>
               <rdf:li rdf:parseType="Resource">
                  <stEvt:action>saved</stEvt:action>
                  <stEvt:instanceID>xmp.iid:B5A15C100E206811822AFE1A44A07668</stEvt:instanceID>
                  <stEvt:when>2014-02-12T12:46:03-07:00</stEvt:when>
                  <stEvt:softwareAgent>Adobe Illustrator CS6 (Macintosh)</stEvt:softwareAgent>
                  <stEvt:changed>/</stEvt:changed>
               </rdf:li>
            </rdf:Seq>
         </xmpMM:History>
      </rdf:Description>
      <rdf:Description rdf:about=""
            xmlns:illustrator="http://ns.adobe.com/illustrator/1.0/">
         <illustrator:StartupProfile>Web</illustrator:StartupProfile>
      </rdf:Description>
      <rdf:Description rdf:about=""
            xmlns:xmpTPg="http://ns.adobe.com/xap/1.0/t/pg/"
            xmlns:stDim="http://ns.adobe.com/xap/1.0/sType/Dimensions#"
            xmlns:xmpG="http://ns.adobe.com/xap/1.0/g/">
         <xmpTPg:NPages>1</xmpTPg:NPages>
         <xmpTPg:HasVisibleTransparency>False</xmpTPg:HasVisibleTransparency>
         <xmpTPg:HasVisibleOverprint>False</xmpTPg:HasVisibleOverprint>
         <xmpTPg:MaxPageSize rdf:parseType="Resource">
            <stDim:w>320.500000</stDim:w>
            <stDim:h>95.750000</stDim:h>
            <stDim:unit>Pixels</stDim:unit>
         </xmpTPg:MaxPageSize>
         <xmpTPg:PlateNames>
            <rdf:Seq>
               <rdf:li>Cyan</rdf:li>
               <rdf:li>Magenta</rdf:li>
               <rdf:li>Yellow</rdf:li>
               <rdf:li>Black</rdf:li>
            </rdf:Seq>
         </xmpTPg:PlateNames>
         <xmpTPg:SwatchGroups>
            <rdf:Seq>
               <rdf:li rdf:parseType="Resource">
                  <xmpG:groupName>Default Swatch Group</xmpG:groupName>
                  <xmpG:groupType>0</xmpG:groupType>
               </rdf:li>
            </rdf:Seq>
         </xmpTPg:SwatchGroups>
      </rdf:Description>
      <rdf:Description rdf:about=""
            xmlns:pdf="http://ns.adobe.com/pdf/1.3/">
         <pdf:Producer>Adobe PDF library 10.01</pdf:Producer>
      </rdf:Description>
   </rdf:RDF>
</x:xmpmeta>
                                                                                                    
                                                                                                    
                                                                                                    
                                                                                                    
                                                                                                    
                                                                                                    
                                                                                                    
                                                                                                    
                                                                                                    
                                                                                                    
                                                                                                    
                                                                                                    
                                                                                                    
                                                                                                    
                                                                                                    
                                                                                                    
                                                                                                    
                                                                                                    
                                                                                                    
                                                                                                    
                           
<?xpacket end="w"?>
	</metadata>
<g>
	<path fill="#353535" d="M75.513,54.197l-5.576,26.002H66.18c-1.448-4.617-3.767-9.098-6.956-13.441
		c-3.19-4.344-6.8-7.924-10.829-10.74c-2.662,4.146-5.635,7.865-8.922,11.152c-3.286,3.285-6.779,6.104-10.477,8.451
		c-3.697,2.348-7.542,4.168-11.534,5.459c-3.991,1.291-7.904,1.936-11.739,1.936c-1.056,0-2.191-0.098-3.404-0.293l1.878-4.461
		c2.075,0.234,3.639,0.354,4.695,0.354c10.72,0,20.27-4.188,28.643-12.561c1.722-1.723,3.472-3.709,5.253-5.957
		c1.781-2.25,3.63-4.883,5.547-7.896C52.6,45.51,56.24,39.251,59.253,33.42l5.518-10.624c4.343-8.334,7.688-13.977,10.036-16.933
		c2.349-2.954,4.675-4.431,6.985-4.431c0.743,0,1.399,0.156,1.966,0.469c0.566,0.314,1.006,0.773,1.321,1.38
		c0.312,0.607,0.469,1.282,0.469,2.025c0,0.548-0.098,1.35-0.293,2.406c-0.197,1.408-0.314,2.171-0.352,2.289l-8.981,42.201h4.168
		l-0.412,1.995H75.513z M69.995,54.197H49.511l0.235,0.176c3.482,2.662,6.476,5.4,8.98,8.218c2.503,2.817,4.95,6.183,7.337,10.095
		L69.995,54.197z M51.096,52.202h19.311l8.334-39.913c0.272-1.291,0.411-1.957,0.411-1.995c0.234-0.782,0.352-1.487,0.352-2.113
		c0-0.978-0.431-1.468-1.291-1.468c-1.056,0-2.328,1.115-3.815,3.346c-1.488,2.23-4.071,6.808-7.748,13.735
		c-0.549,1.056-1.665,3.19-3.346,6.397c-1.408,2.544-2.172,3.953-2.289,4.226L55.38,44.689
		C53.033,48.954,51.603,51.459,51.096,52.202z"/>
	<path fill="#353535" d="M98.478,54.248h-0.28c-0.392-0.112-0.807-0.182-1.244-0.209c-0.438-0.029-0.964-0.043-1.579-0.043
		c-1.417,0-2.823,0.309-4.221,0.923c-1.397,0.614-2.721,1.528-3.969,2.739v22.164h-5.254V48.602h5.254v4.64
		c1.919-1.694,3.592-2.894,5.017-3.591c1.425-0.699,2.809-1.049,4.151-1.049c0.54,0,0.945,0.015,1.216,0.041
		c0.27,0.028,0.573,0.07,0.909,0.127V54.248z"/>
	<path fill="#353535" d="M114.293,80.438c-2.87,0-5.105-0.815-6.708-2.445c-1.602-1.631-2.404-4.206-2.404-7.729V52.962h-3.549
		v-4.358h3.549V39.63h5.255v8.972h9.671v4.359h-9.671v14.842c0,1.586,0.028,2.805,0.083,3.661c0.057,0.858,0.27,1.659,0.644,2.403
		c0.316,0.652,0.829,1.142,1.537,1.468c0.708,0.327,1.667,0.488,2.878,0.488c0.857,0,1.687-0.125,2.487-0.378
		c0.802-0.25,1.379-0.461,1.733-0.629h0.308v4.726c-0.988,0.278-1.989,0.498-3.005,0.656
		C116.086,80.357,115.15,80.438,114.293,80.438z"/>
	<path fill="#353535" d="M133.578,80.576c-2.087,0-4.039-0.279-5.855-0.838c-1.817-0.561-3.322-1.156-4.514-1.789v-5.897h0.279
		c0.448,0.354,0.973,0.746,1.58,1.175c0.604,0.428,1.412,0.875,2.417,1.34c0.895,0.412,1.877,0.775,2.949,1.091
		c1.071,0.317,2.185,0.477,3.341,0.477c0.838,0,1.732-0.098,2.682-0.294c0.951-0.195,1.659-0.441,2.125-0.74
		c0.652-0.428,1.123-0.885,1.412-1.369c0.288-0.483,0.433-1.211,0.433-2.181c0-1.248-0.34-2.188-1.021-2.823
		c-0.68-0.633-1.886-1.164-3.619-1.593c-0.67-0.168-1.547-0.362-2.627-0.588c-1.081-0.223-2.078-0.465-2.991-0.726
		c-2.385-0.688-4.118-1.756-5.199-3.2c-1.08-1.443-1.621-3.19-1.621-5.24c0-2.813,1.062-5.104,3.186-6.877
		c2.125-1.771,4.947-2.655,8.469-2.655c1.732,0,3.474,0.215,5.226,0.643c1.751,0.43,3.224,0.969,4.417,1.622v5.617h-0.28
		c-1.342-1.062-2.837-1.9-4.486-2.516s-3.312-0.923-4.989-0.923c-1.733,0-3.196,0.362-4.388,1.09
		c-1.193,0.728-1.789,1.827-1.789,3.3c0,1.305,0.354,2.276,1.062,2.92c0.708,0.643,1.845,1.17,3.41,1.58
		c0.782,0.205,1.653,0.403,2.613,0.602c0.959,0.193,1.97,0.424,3.032,0.684c2.311,0.578,4.048,1.537,5.213,2.879
		s1.747,3.168,1.747,5.479c0,1.341-0.266,2.612-0.797,3.813c-0.531,1.202-1.309,2.232-2.333,3.09
		c-1.118,0.932-2.381,1.64-3.787,2.123C137.467,80.334,135.703,80.576,133.578,80.576z"/>
	<path fill="#353535" d="M175.223,48.604l-16.797,42.732h-5.618l5.59-13.023L147.05,48.604h5.673l8.524,23.113l8.497-23.113H175.223
		z"/>
	<path fill="#FBB03B" d="M234.264,45.417c6.82,0.211,10.426,0.315,10.814,0.315c0.385,0,0.613,0,0.684,0
		c1.688-0.137,2.533,0.106,2.533,0.741c0,0.985-1.373,1.476-4.115,1.476l-8.967-0.211c-1.83,0.143-2.92,0.317-3.27,0.528
		c-2.955,3.656-6.93,8.95-11.922,15.876c-4.996,6.928-7.49,11.06-7.49,12.396c0,0.562,0.633,0.422,1.898-0.422
		c0.771,0,1.159,0.106,1.159,0.315c0,0.353-0.774,0.881-2.319,1.584l-2.955,1.582c-1.336,1.125-2.866,1.688-4.588,1.688
		c-1.725,0-2.516-0.422-2.373-1.267c0.068-1.688,2.564-5.961,7.487-12.815c4.925-6.858,10.021-13.384,15.3-19.572
		c-5.064,0.917-8.935,1.373-11.605,1.373c-0.281-0.069-0.422-0.299-0.422-0.687c0-0.385,0.422-0.93,1.268-1.635
		c0.842-0.702,1.74-1.055,2.688-1.055c0.951,0,2.48-0.033,4.591-0.105h5.381c2.39-3.234,7.701-10.69,15.931-22.364
		c3.375-4.854,5.062-8.862,5.062-12.027c0-4.922-3.656-7.384-10.97-7.384c-5.699,0-12.397,1.583-20.1,4.748
		c-7.701,3.165-14.785,7.49-21.255,12.976c-4.573,3.798-8.194,7.912-10.866,12.342c-2.672,4.432-4.008,8.372-4.008,11.816
		c0,5.558,3.305,8.335,9.915,8.335c0.562,0,1.16-0.035,1.793-0.105c4.289-0.354,8.351-2.795,12.185-7.333
		c3.832-4.535,5.748-8.35,5.748-11.445c0-0.281-0.035-0.598-0.104-0.949c1.83,0.352,2.743,1.441,2.743,3.269
		c0,3.026-1.971,6.578-5.907,10.657c-5.345,5.556-11.534,8.334-18.565,8.334c-3.867,0-6.894-1.021-9.072-3.062
		c-2.18-2.037-3.271-4.815-3.271-8.333c0-8.299,5.063-16.668,15.19-25.107c7.313-5.978,15.087-10.497,23.314-13.556
		c8.229-3.06,15.383-4.589,21.469-4.589c6.082,0,10.617,0.88,13.607,2.637c2.988,1.759,4.484,4.204,4.484,7.332
		c0,3.131-1.373,6.664-4.115,10.603C249.631,24.917,243.969,32.618,234.264,45.417z"/>
	<path fill="#FBB03B" d="M240.891,75.527c0,1.719,0.943,2.576,2.834,2.576c1.887,0,4.32-1,7.299-3.004
		c2.974-2.002,5.865-4.724,8.67-8.158c0.688-0.914,1.23-1.373,1.633-1.373s0.601,0.173,0.601,0.516c0,0.344-1.174,1.832-3.521,4.464
		c-5.725,6.298-10.506,9.445-14.34,9.445c-1.887,0-3.489-0.442-4.807-1.329c-1.318-0.889-1.975-2.262-1.975-4.121
		c0-1.861,0.482-4.021,1.459-6.484c1.66-3.892,4.32-8.785,7.984-14.684c6.696-10.874,11.447-16.312,14.254-16.312
		c0.57,0,1.158,0.215,1.76,0.644c0.602,0.43,0.93,0.902,0.988,1.417c-1.318,1.775-3.853,5.181-7.601,10.218
		c-3.75,5.037-6.34,8.656-7.771,10.86c-1.432,2.204-2.506,3.851-3.221,4.938c-0.716,1.086-1.242,1.93-1.588,2.531
		c-0.343,0.602-0.744,1.391-1.201,2.361C241.375,71.98,240.891,73.811,240.891,75.527z"/>
	<path fill="#FBB03B" d="M261.498,80.768c-2.92,0-4.381-1.891-4.381-5.668c0-3.092,1.689-7.369,5.066-12.836
		s6.098-8.229,8.156-8.287c0.571,0,1.215,0.229,1.934,0.688c0.715,0.459,1.072,0.917,1.072,1.374
		c-0.287,0.4-0.633,0.845-1.031,1.331c-0.4,0.487-0.83,1.016-1.287,1.588c-0.459,0.574-1.088,1.39-1.889,2.446
		c-0.803,1.062-1.576,2.076-2.318,3.05c-4.293,5.553-6.439,9.373-6.439,11.461c0,2.092,0.717,3.135,2.146,3.135
		c1.203,0,2.834-0.655,4.895-1.975c4.809-2.978,8.613-6.238,11.42-9.788c1.029-1.316,1.729-1.977,2.102-1.977
		s0.561,0.23,0.561,0.688c0,0.459-0.659,1.373-1.977,2.747c-1.315,1.376-2.36,2.463-3.133,3.263
		c-0.772,0.804-1.303,1.332-1.588,1.591c-0.287,0.256-0.815,0.743-1.59,1.459c-0.773,0.715-1.361,1.217-1.76,1.504
		c-0.4,0.285-0.975,0.715-1.717,1.287c-0.746,0.571-1.403,0.985-1.975,1.243c-0.572,0.259-1.232,0.56-1.977,0.901
		C264.59,80.51,263.156,80.768,261.498,80.768z M279.484,45.606c0.771,0.545,1.158,1.188,1.158,1.932s-0.355,1.388-1.072,1.933
		c-0.717,0.543-1.502,0.814-2.361,0.814c-0.857,0-1.646-0.312-2.361-0.943s-1.072-1.345-1.072-2.147
		c0-1.602,1.086-2.404,3.263-2.404C277.896,44.791,278.713,45.063,279.484,45.606z"/>
	<path fill="#FBB03B" d="M308.893,76.043c-4.123,3.436-7.543,5.152-10.262,5.152s-4.507-1.975-5.365-5.924
		c-0.287-1.603-0.488-4.006-0.602-7.215c-6.984,7.442-12.221,14.168-15.712,20.18c-0.173,0.227-0.399,0.344-0.688,0.344
		c-0.687,0-1.029-0.316-1.029-0.945c0-0.172,0.057-0.316,0.172-0.43c5.322-8.413,11.074-15.798,17.258-22.152
		c0.229-7.841,0.372-12.248,0.428-13.223c-1.316,0.288-4.119,3.605-8.412,9.961c-2.119,3.207-3.979,5.666-5.582,7.385
		c-1.603,1.717-2.561,2.705-2.877,2.961c-0.312,0.258-0.629,0.389-0.941,0.389c-0.314,0-0.473-0.145-0.473-0.432
		c0-0.285,0.916-1.445,2.746-3.477c1.83-2.032,4.264-5.354,7.297-9.96c3.034-4.607,5.209-7.513,6.527-8.716
		c1.314-1.202,2.547-1.802,3.691-1.802c1.144,0,1.976,0.158,2.488,0.472c0.518,0.313,0.7,0.857,0.56,1.631
		c-0.144,0.773-0.259,1.447-0.343,2.018c-0.086,0.574-0.158,1.232-0.217,1.977c-0.343,2.689-0.545,4.894-0.601,6.609
		c2.806-2.688,9.129-8.213,18.976-16.57c0.113-0.114,0.313-0.172,0.602-0.172c0.285,0,0.658,0.245,1.115,0.729
		c0.459,0.487,0.688,0.975,0.688,1.46c0,0.487-0.229,0.96-0.688,1.417c-1.832,1.49-5.021,3.878-9.572,7.169
		c-4.551,3.293-8.314,6.312-11.291,9.061c-0.059,1.201-0.086,2.83-0.086,4.894c0,2.06,0.258,3.949,0.773,5.666
		c0.686,2.231,1.944,3.351,3.776,3.351c3.263,0,8.299-3.92,15.112-11.765c0.57-0.571,1-0.858,1.285-0.858
		c0.287,0,0.431,0.186,0.431,0.558c0,0.374-0.229,0.815-0.687,1.333C313.844,71.294,311.008,74.271,308.893,76.043z"/>
</g>
</svg>
