<?xml version="1.0" encoding="utf-8"?>
<!-- Generator: Adobe Illustrator 16.0.4, SVG Export Plug-In . SVG Version: 6.00 Build 0)  -->
<!DOCTYPE svg PUBLIC "-//W3C//DTD SVG 1.1//EN" "http://www.w3.org/Graphics/SVG/1.1/DTD/svg11.dtd" [
	<!ENTITY ns_extend "http://ns.adobe.com/Extensibility/1.0/">
	<!ENTITY ns_ai "http://ns.adobe.com/AdobeIllustrator/10.0/">
	<!ENTITY ns_graphs "http://ns.adobe.com/Graphs/1.0/">
	<!ENTITY ns_vars "http://ns.adobe.com/Variables/1.0/">
	<!ENTITY ns_imrep "http://ns.adobe.com/ImageReplacement/1.0/">
	<!ENTITY ns_sfw "http://ns.adobe.com/SaveForWeb/1.0/">
	<!ENTITY ns_custom "http://ns.adobe.com/GenericCustomNamespace/1.0/">
	<!ENTITY ns_adobe_xpath "http://ns.adobe.com/XPath/1.0/">
]>
<svg version="1.1" id="Layer_1" xmlns:x="&ns_extend;" xmlns:i="&ns_ai;" xmlns:graph="&ns_graphs;"
	 xmlns="http://www.w3.org/2000/svg" xmlns:xlink="http://www.w3.org/1999/xlink" x="0px" y="0px" width="426.75px"
	 height="104.75px" viewBox="0 0 426.75 104.75" enable-background="new 0 0 426.75 104.75" xml:space="preserve">
<metadata>
	<sfw  xmlns="&ns_sfw;">
		<slices></slices>
		<sliceSourceBounds  x="-8066" y="-100.295" width="16383" height="104.09" bottomLeftOrigin="true"></sliceSourceBounds>
	</sfw>
</metadata>
<g>
	<path fill="#333333" d="M100.739,80.221c0,0.967-0.142,1.594-0.423,1.875c-0.283,0.283-1.553,0.584-3.808,0.904
		c-1.209,0.164-2.418,0.365-3.627,0.607l-4.353,0.844c-2.097,0.404-3.709,0.604-4.836,0.604c-2.418,0-3.91-1.332-4.474-4
		c-0.323-1.373-0.483-4.244-0.483-8.611c0-1.213,0.079-4.646,0.242-10.307l0.362-14.19c0-1.05-0.403-1.696-1.208-1.939
		c-0.243-0.08-1.131-0.121-2.661-0.121l-3.264,0.483h-4.109h-4.354l-4.594,0.362c-1.935,0.163-3.245,0.465-3.93,0.906
		c-0.685,0.444-1.612,1.573-2.779,3.387c-1.17,1.813-2.883,4.333-5.139,7.555c-4.109,5.965-7.374,10.396-9.793,13.299
		c-3.626,4.516-7.718,8.1-12.27,10.76c-4.556,2.66-8.765,3.99-12.635,3.99c-5.64,0-8.462-2.139-8.462-6.408
		c0-3.869,0.888-5.801,2.659-5.801c0.322,0,0.565,0.119,0.726,0.361l0.483,0.848c0.645,1.127,2.497,1.691,5.562,1.691
		c3.062,0,6.447-0.926,10.155-2.781c6.045-3.062,11.968-8.1,17.771-15.113c3.787-4.512,8.222-10.959,13.298-19.343l9.793-16.078
		c3.385-5.561,6.326-9.106,8.826-10.639c1.209-0.725,1.812-1.25,1.812-1.571c0-0.403-0.604-0.684-1.812-0.847
		c-0.809,0-1.653-0.041-2.54-0.12L59.756,9.859c-3.707-0.32-7.213-0.483-10.518-0.483c-10.561,0-17.369,2.46-20.432,7.375
		c-2.418,3.869-3.627,8.021-3.627,12.452c0,1.209,0.441,2.822,1.331,4.835c0.16,0.242,0.241,0.525,0.241,0.847
		c-0.081,0.324-0.202,0.565-0.363,0.726c-0.323,0.564-0.768,0.847-1.329,0.847c-0.323,0-0.808-0.161-1.451-0.483
		c-3.868-2.497-5.803-5.32-5.803-8.463c0-5.319,3.344-10.678,10.034-16.078c2.739-2.178,5.561-4.029,8.463-5.562
		c4.835-2.496,10.234-3.747,16.199-3.747c4.674,0,10.478,0.443,17.409,1.329c2.337,0.324,5.036,0.687,8.1,1.089l6.287,0.604
		c2.497,0.241,4.149,0.363,4.956,0.363c2.418,0,5.359-0.605,8.825-1.813c0.484-0.243,0.926-0.363,1.331-0.363
		c0.562,0,0.846,0.403,0.846,1.209c0,1.209-0.605,1.976-1.813,2.296c-3.064,0.726-5.06,1.693-5.984,2.902
		c-0.928,1.209-1.633,3.747-2.116,7.616l-1.45,11.002c-0.727,5.562-1.29,14.467-1.692,26.717c-0.163,4.998-0.241,8.867-0.241,11.607
		c0,5.318,0.28,8.783,0.846,10.395c0.644,1.857,2.579,2.781,5.803,2.781c0.726,0,1.792-0.1,3.204-0.301
		c1.409-0.201,2.478-0.303,3.204-0.303C100.497,79.254,100.739,79.576,100.739,80.221z M82.968,13c0-0.643-0.201-0.963-0.604-0.963
		c-0.081,0-0.444,0.079-1.088,0.242c-1.451,0.81-2.581,1.537-3.386,2.185c-2.418,2.024-6.328,7.204-11.727,15.538
		c-1.129,1.779-2.378,3.643-3.748,5.584c-1.773,2.509-2.659,4.21-2.659,5.099c0,0.647,0.562,1.013,1.692,1.092h2.297H71
		c0.804,0,2.215,0,4.23,0h0.846c1.611,0,2.66-0.119,3.144-0.361c0.242-0.24,0.442-0.6,0.604-1.084
		c0.242-0.8,0.523-3.369,0.847-7.704c0.241-2.971,0.562-6.021,0.968-9.152l0.725-5.418C82.767,15.006,82.968,13.321,82.968,13z"/>
	<path fill="#333333" d="M137.974,38.801c0,0.903-0.612,2.968-1.836,6.19c-0.325,0.903-0.871,1.354-1.646,1.354
		c-0.386,0-0.999-0.047-1.837-0.145c-0.839-0.097-1.483-0.146-1.935-0.146c-3.998,0-7.156,2.192-9.479,6.577
		c-0.903,1.677-1.45,3.288-1.645,4.836c-0.386,2.707-0.579,6.996-0.579,12.863v2.418l0.386,8.123
		c0.063,1.42-0.622,2.322-2.057,2.711c-2.288,0.643-3.627,0.965-4.019,0.965c-0.85,0-1.274-0.645-1.274-1.934v-2.127
		c0.193-2.709,0.388-8.543,0.581-17.508V50.021v-4.062c-0.067-1.804-0.475-2.916-1.224-3.337c-0.749-0.418-2.786-0.628-6.111-0.628
		c-1.043,0-1.564-0.418-1.564-1.258c0-0.58,0.388-0.901,1.161-0.967c0.45-0.064,1.225-0.193,2.32-0.388l2.999-0.58
		c1.289-0.257,2.95-0.69,4.981-1.306c2.031-0.611,2.981-0.918,2.854-0.918c0.321,0,0.708,0.227,1.16,0.677
		c0.449,0.451,0.677,0.936,0.677,1.45c0,0.581-0.033,1.032-0.097,1.354c-0.259,3.483-0.388,5.675-0.388,6.577
		c0,1.806,0.323,2.708,0.968,2.708c0.387,0,0.806-0.321,1.257-0.967l2.322-3.094c2.062-2.709,3.965-4.755,5.705-6.143
		c1.741-1.385,3.739-2.08,5.997-2.08C137.2,37.06,137.974,37.641,137.974,38.801z"/>
	<path fill="#333333" d="M171.243,77.684c0,1.096-0.642,2.029-1.926,2.805c-4.302,2.707-8.669,4.061-13.098,4.061
		c-5.331,0-7.994-3.254-7.994-9.768c0-0.129,0.032-0.805,0.097-2.031c0.063-1.225,0.097-2.418,0.097-3.578l0.29-21.762v-1.935
		c0-1.804-0.13-2.868-0.387-3.191c-0.259-0.323-1.098-0.484-2.515-0.484h-2.127c-2.322,0-3.483-0.289-3.483-0.87
		c0-1.676,0.806-2.643,2.418-2.9c1.611-0.257,2.676-0.451,3.192-0.581c1.354-0.388,2.256-0.935,2.709-1.646
		c0.515-0.966,1.062-3.254,1.643-6.865l0.29-1.837c0.129-0.904,0.58-1.483,1.354-1.741c1.741-0.581,2.901-0.871,3.481-0.871
		c0.45,0,0.677,0.452,0.677,1.354v0.967l-0.192,5.705c-0.065,2.001-0.098,2.709-0.098,2.129c0,0.58,0.063,1,0.194,1.257
		c0.45,0.84,2.16,1.451,5.125,1.839l5.514,0.676c0.773,0.065,1.676,0.161,2.707,0.29c0.839,0.065,1.258,0.388,1.258,0.967
		c0,0.193-0.064,0.598-0.192,1.209c-0.132,0.614-1.065,0.919-2.806,0.919h-5.029c-3.481,0-5.449,0.097-5.899,0.29
		c-0.903,0.518-1.354,2.678-1.354,6.481v7.544v10.252c0,5.676,0.415,9.398,1.249,11.172c0.832,1.773,2.628,2.656,5.384,2.656
		c2.82,0,5.353-0.998,7.595-2.998c0.513-0.447,0.961-0.674,1.347-0.674C171.084,76.523,171.243,76.906,171.243,77.684z"/>
	<path fill="#333333" d="M203.837,68.916c0,4.566-1.757,8.314-5.271,11.244c-3.516,2.928-8.043,4.389-13.588,4.389
		c-2.967,0-5.319-0.389-7.061-1.16c-1.74-0.773-2.611-2.869-2.611-6.289v-0.674v-1.742c0.063-0.707,0.485-1.062,1.264-1.062
		c0.581,0,0.938,0.191,1.067,0.58c0.647,1.42,1.425,2.451,2.331,3.094c2.978,2,6.312,2.998,10.005,2.998
		c2.394,0,4.353-0.662,5.874-1.982c1.522-1.32,2.284-3.047,2.284-5.174c0-2.967-1.903-5.385-5.707-7.254l-3.966-1.934
		c-5.028-2.451-8.365-4.465-10.009-6.047c-1.644-1.578-2.466-3.626-2.466-6.14c0-4.319,1.82-7.932,5.464-10.833
		c3.642-2.9,8.236-4.352,13.782-4.352c5.156,0,7.736,1.226,7.736,3.676c0,0.323-0.097,0.74-0.289,1.257l-0.773,2.031
		c-0.388,1.031-0.871,1.547-1.452,1.547c-0.258,0-0.613-0.155-1.063-0.47c-2.773-1.879-5.867-2.819-9.284-2.819
		c-5.61,0-8.414,2.06-8.414,6.177c0,1.674,0.708,3.121,2.127,4.343c1.417,1.223,4.609,2.992,9.574,5.306
		c3.805,1.801,6.495,3.555,8.076,5.26C203.047,64.592,203.837,66.6,203.837,68.916z"/>
	<path fill="#333333" d="M249.293,39.576c0,1.741-0.839,4.61-2.516,8.607c-2.193,5.223-5.609,11.993-10.252,20.311
		c-3.61,6.512-6.609,13.219-8.994,20.119c-1.677,4.896-2.514,8.541-2.514,10.928c0,1.225-0.131,2.029-0.388,2.418
		c-0.258,0.385-0.807,0.678-1.645,0.871l-2.707,0.58c-0.904,0.254-1.484,0.385-1.74,0.385c-0.904,0-1.354-0.482-1.354-1.451
		c0-2.387,0.901-5.479,2.707-9.283l3.482-7.35c1.03-2.193,1.548-3.547,1.548-4.061c0-0.131-0.064-0.584-0.193-1.357
		c-1.679-6.252-3.806-13.572-6.385-21.955c-0.838-2.643-1.836-5.962-2.997-9.961c-0.711-2.644-1.323-4.286-1.838-4.933
		c-0.838-1.225-2.29-1.838-4.353-1.838h-0.581c-0.966,0-1.449-0.387-1.449-1.159c0-0.646,0.354-1.065,1.063-1.258l3.772-1.063
		l3.578-1.065c1.096-0.32,1.772-0.482,2.031-0.482c0.837,0,1.514,0.548,2.03,1.644c0.516,1.099,1.321,3.578,2.419,7.447
		l6.189,22.341c0.901,3.227,1.675,4.836,2.32,4.836c0.388,0,0.935-0.547,1.645-1.643c0.45-0.969,0.903-1.9,1.354-2.807
		c1.224-2.32,2.289-4.514,3.191-6.576c2.965-6.77,4.449-12.671,4.449-17.699c0-0.58-0.097-1.37-0.291-2.369
		c-0.19-1-0.288-1.725-0.288-2.177c0-0.902,0.74-1.547,2.225-1.935l2.418-0.581c0.321-0.127,0.804-0.192,1.45-0.192
		C248.423,36.868,249.293,37.772,249.293,39.576z"/>
	<path fill="#DE9B2B" d="M346.613,1.275c0,0.808-1.411,2.823-4.231,6.046c-1.451,1.693-4.395,2.538-8.826,2.538
		c-2.096,0-4.231-0.079-6.406-0.24l-6.53-0.484c-1.128-0.079-2.296-0.12-3.505-0.12c-2.823,0-4.595,1.801-5.318,5.405
		c-0.485,2.324-0.89,5.126-1.21,8.407c-0.081,0.802-0.12,1.725-0.12,2.764c0,1.603,1.047,2.403,3.143,2.403h0.241h2.42h2.295h1.812
		c0.969,0,1.451,0.429,1.451,1.286c0,1.481-1.249,2.219-3.746,2.219h-3.508c-2.338,0-3.788,0.363-4.351,1.089
		c-0.324,0.405-0.688,2.259-1.088,5.562c-0.242,2.339-0.564,4.716-0.968,7.134c-1.452,9.108-4.395,16.885-8.824,23.333
		c-2.822,4.111-6.469,7.719-10.942,10.82c-4.474,3.104-8.887,5.098-13.236,5.984c-2.018,0.4-4.434,0.604-7.254,0.604
		c-8.223,0-12.332-2.137-12.332-6.406c0-2.014,0.282-3.807,0.847-5.379c0.563-1.574,1.248-2.359,2.056-2.359
		c0.885,0,1.572,0.564,2.056,1.693c0.643,1.531,2.435,2.861,5.378,3.99c2.94,1.129,6.104,1.691,9.492,1.691
		c5.722,0,10.515-1.773,14.385-5.32c2.739-2.576,4.854-5.721,6.347-9.43c1.492-3.707,2.922-9.389,4.292-17.046
		c0.887-5.077,1.33-9.025,1.33-11.848c0-1.369-0.563-2.055-1.692-2.055c-0.404,0-1.251,0.081-2.539,0.241
		c-3.708,0.889-5.925,1.855-6.648,2.901l-0.848,1.209c-0.163,0.163-0.404,0.242-0.725,0.242c-0.482,0-0.847-0.079-1.089-0.242
		c-0.563-0.242-0.847-0.644-0.847-1.209c0-0.885,0.686-2.437,2.057-4.654c1.37-2.215,4.392-3.445,9.067-3.687
		c1.369-0.081,2.217-0.201,2.537-0.363c0.645-0.322,0.969-1.006,0.969-2.055v-0.484c0-4.513,0.141-7.514,0.424-9.006
		c0.281-1.49,2.235-3.485,5.861-5.985c0.727-0.643,1.089-1.046,1.089-1.209c0-0.482-0.688-0.766-2.062-0.845l-5.453-0.363
		c-2.423-0.161-5.092-0.241-8.002-0.241c-4.848,0-8.403,0.202-10.667,0.604c-3.718,0.563-6.989,1.854-9.817,3.867
		c-2.828,2.017-5.171,4.716-7.028,8.101c-1.86,3.384-2.789,6.61-2.789,9.671c0,1.855,0.226,3.225,0.68,4.111
		c0.273,0.564,0.409,0.967,0.409,1.209c0,0.241-0.121,0.482-0.364,0.725c-0.404,0.565-0.926,0.847-1.572,0.847
		c-0.724,0-1.812-1.007-3.263-3.021c-2.176-2.981-3.265-5.643-3.265-7.979c0-3.305,1.892-6.729,5.683-10.276
		c4.915-4.595,10.898-8.159,17.95-10.699c7.053-2.538,14.368-3.767,21.944-3.688l8.34,0.122l11.851,0.362l11.363,0.604
		c1.529,0.081,2.86,0.122,3.988,0.122c2.738,0,4.554-0.443,5.44-1.33l1.21-1.209c0.319-0.16,0.604-0.242,0.845-0.242
		c0.404,0,0.685,0.082,0.848,0.242C346.291,0.268,346.613,0.713,346.613,1.275z"/>
	<path fill="#DE9B2B" d="M353.359,81.744c0,0.58-0.452,0.936-1.354,1.066l-9.576,1.641c-0.711,0.129-1.354,0.195-1.934,0.195
		c-2.579,0-3.87-1.611-3.87-4.836v-3.189v-4.645l0.215-5.998l0.431-15.668l0.323-24.758c0-1.804-0.527-3-1.58-3.579
		c-0.727-0.322-2.144-0.484-4.25-0.484h-1.778c-1.055,0-1.58-0.417-1.58-1.257c0-0.579,0.392-0.902,1.176-0.967
		c0.194,0,0.976-0.129,2.348-0.387l3.131-0.58c0.456-0.063,2.088-0.484,4.893-1.258c0.521-0.193,1.142-0.388,1.859-0.581
		c0.717-0.191,1.107-0.289,1.174-0.289c0.522,0,1.075,0.289,1.663,0.87c0.26,0.259,0.391,0.58,0.391,0.967v0.193l-0.16,2.225
		l-0.322,3.193v4.738v6.673l-0.773,33.658v5.418c0,2.062,0.096,3.414,0.29,4.061c0.452,1.291,1.451,2.029,2.999,2.225
		c0.129,0,0.58,0,1.354,0c0.836,0.064,1.578,0.098,2.225,0.098c0.386,0.064,0.899,0.098,1.545,0.098h0.194
		c0.322,0,0.563,0.061,0.727,0.193C353.274,80.908,353.359,81.229,353.359,81.744z"/>
	<path fill="#DE9B2B" d="M379.662,81.744c0,0.58-0.445,0.936-1.338,1.066l-9.366,1.641c-0.7,0.129-1.338,0.195-1.913,0.195
		c-2.549,0-3.821-1.611-3.821-4.836v-3.189v-4.645l0.289-10.156c0-2.062,0-4.578,0-7.544c0-2.256,0-3.675,0-4.255v-4.062
		c0-1.804-0.377-2.916-1.124-3.337c-0.75-0.418-2.82-0.628-6.209-0.628c-1.042,0-1.564-0.418-1.564-1.258
		c0-0.58,0.384-0.901,1.146-0.967c0.446-0.064,1.209-0.193,2.296-0.388l2.959-0.58c0.512-0.128,2.104-0.547,4.78-1.257
		c1.719-0.645,2.708-0.967,2.963-0.967c0.445,0,0.985,0.322,1.623,0.967c0.255,0.323,0.384,0.646,0.384,0.967v0.193v2.225v3.287
		l-0.581,4.645v10.444v9.383v5.418c-0.065,2.898,0.35,4.771,1.247,5.607c0.38,0.324,1.053,0.549,2.007,0.678
		c0.065,0,0.512,0,1.343,0c0.764,0.064,1.53,0.098,2.296,0.098c0.383,0.064,0.864,0.098,1.438,0.098h0.287
		C379.376,80.586,379.662,80.971,379.662,81.744z M371.637,23.23c0,2.709-0.259,4.418-0.774,5.127
		c-0.773,1.097-2.61,1.644-5.512,1.644c-1.679,0-2.516-1.161-2.516-3.482c0-1.934,0.194-3.19,0.582-3.772
		c0.838-1.353,2.806-2.029,5.897-2.029C370.862,20.716,371.637,21.554,371.637,23.23z"/>
	<path fill="#DE9B2B" d="M422.605,81.262c0,0.389-0.066,0.662-0.194,0.82c-0.129,0.16-0.968,0.467-2.514,0.918
		c-3.612,1.031-6.258,1.549-7.931,1.549c-1.548,0-2.805-0.867-3.772-2.613c-1.097-2.059-2.225-4.285-3.385-6.672l-2.901-6.092
		c-1.16-2.709-2.097-4.064-2.805-4.064c-0.452,0-1.034,0.809-1.743,2.418c-0.128,0.389-0.385,1.031-0.773,1.938l-2.416,5.318
		c-1.936,4.061-3.353,6.705-4.256,7.932c-0.905,1.221-1.968,1.836-3.192,1.836c-1.549,0-3.093-0.902-4.641-2.707
		c-1.034-1.227-1.548-2.16-1.548-2.805c0-0.451,0.354-0.711,1.064-0.773l1.257-0.098c2.577-0.195,5.446-2.354,8.607-6.479
		c3.868-5.096,5.802-8.674,5.802-10.738c0-0.773-0.935-2.805-2.805-6.092c-0.387-0.645-1.354-2.385-2.901-5.224
		c-1.546-2.837-2.451-4.448-2.708-4.835c-1.354-1.998-2.773-3.029-4.256-3.095l-2.225-0.098c-0.517,0-0.771-0.418-0.771-1.257
		c0-0.709,0.515-1.16,1.546-1.354c2.064-0.388,4.48-1.097,7.254-2.128c0.514-0.193,0.934-0.29,1.256-0.29
		c0.969,0,1.968,1.128,3,3.385l4.835,10.445c1.226,2.644,2.062,3.966,2.516,3.966c0.386,0,0.966-0.968,1.74-2.902
		c2.384-5.932,4.224-9.896,5.514-11.896c1.289-1.998,2.674-2.998,4.156-2.998c1.677,0,3.096,0.935,4.258,2.804
		c0.708,1.161,1.062,2.161,1.062,2.999c0,0.772-0.373,1.177-1.111,1.209c-0.744,0.033-1.499,0.146-2.273,0.339
		c-2.384,0.579-4.609,2.32-6.674,5.221c-3.354,4.71-5.029,7.738-5.029,9.093c0,0.709,0.226,1.418,0.677,2.127
		c0.194,0.387,0.903,1.613,2.127,3.676c0.518,0.967,1.646,3.031,3.388,6.189c3.03,5.547,5.061,8.607,6.093,9.188
		c0.45,0.26,1.45,0.482,2.998,0.678c0.968,0.131,1.676,0.162,2.128,0.096h0.291C422.186,80.195,422.605,80.553,422.605,81.262z"/>
</g>
</svg>
